<svg xmlns="http://www.w3.org/2000/svg" width="365.624" height="321.468"><defs><clipPath id="a"><path data-name="Rectangle 7906" fill="none" d="M0 0h365.624v321.468H0z"/></clipPath><clipPath id="b"><path data-name="Rectangle 7907" fill="#061b5c" d="M0 0h173.356v202.168H0z"/></clipPath></defs><g data-name="Group 21030"><g data-name="Group 21009"><g data-name="Group 21008" clip-path="url(#a)"><path data-name="Path 10101" d="M324.585 321.469H92.273a41.039 41.039 0 0 1-41.039-41.039V80.63a41.04 41.04 0 0 1 41.039-41.04h232.312a41.04 41.04 0 0 1 41.039 41.04v199.8a41.039 41.039 0 0 1-41.039 41.039" fill="#f5c8de"/><path data-name="Path 10102" d="M324.381 321.311H92.069a41.039 41.039 0 0 1-41.039-41.039v-199.8a41.039 41.039 0 0 1 41.039-41.039h232.312a41.039 41.039 0 0 1 41.039 41.039v199.8a41.039 41.039 0 0 1-41.039 41.039" fill="#f5c8de"/><path data-name="Path 10103" d="M324.177 321.153H91.865a41.039 41.039 0 0 1-41.039-41.038v-199.8a41.039 41.039 0 0 1 41.039-41.039h232.312a41.039 41.039 0 0 1 41.039 41.039v199.8a41.039 41.039 0 0 1-41.039 41.039" fill="#f5c9de"/><path data-name="Path 10104" d="M323.973 320.995H91.661a41.039 41.039 0 0 1-41.039-41.039v-199.8a41.039 41.039 0 0 1 41.039-41.039h232.312a41.039 41.039 0 0 1 41.039 41.039v199.8a41.039 41.039 0 0 1-41.039 41.039" fill="#f5c9df"/><path data-name="Path 10105" d="M323.769 320.838H91.457a41.039 41.039 0 0 1-41.039-41.039v-199.8A41.039 41.039 0 0 1 91.457 38.96h232.312a41.039 41.039 0 0 1 41.039 41.039v199.8a41.039 41.039 0 0 1-41.039 41.039" fill="#f5c9df"/><path data-name="Path 10106" d="M323.565 320.68H91.253a41.039 41.039 0 0 1-41.039-41.039v-199.8a41.039 41.039 0 0 1 41.039-41.039h232.312a41.039 41.039 0 0 1 41.039 41.039v199.8a41.039 41.039 0 0 1-41.039 41.039" fill="#f5c9df"/><path data-name="Path 10107" d="M323.36 320.522H91.048a41.039 41.039 0 0 1-41.039-41.039v-199.8a41.039 41.039 0 0 1 41.039-41.039H323.36a41.039 41.039 0 0 1 41.039 41.039v199.8a41.039 41.039 0 0 1-41.039 41.039" fill="#f5c9df"/><path data-name="Path 10108" d="M323.156 320.364H90.844a41.039 41.039 0 0 1-41.039-41.039v-199.8a41.04 41.04 0 0 1 41.039-41.04h232.312a41.04 41.04 0 0 1 41.039 41.04v199.8a41.039 41.039 0 0 1-41.039 41.039" fill="#f5cadf"/><path data-name="Path 10109" d="M322.952 320.206H90.64a41.039 41.039 0 0 1-41.039-41.039v-199.8A41.039 41.039 0 0 1 90.64 38.328h232.312a41.039 41.039 0 0 1 41.039 41.039v199.8a41.039 41.039 0 0 1-41.039 41.039" fill="#f5cadf"/><path data-name="Path 10110" d="M322.748 320.049H90.436a41.039 41.039 0 0 1-41.039-41.039V79.21a41.04 41.04 0 0 1 41.039-41.04h232.312a41.04 41.04 0 0 1 41.039 41.04v199.8a41.039 41.039 0 0 1-41.039 41.039" fill="#f5cadf"/><path data-name="Path 10111" d="M322.544 319.891H90.232a41.039 41.039 0 0 1-41.039-41.039v-199.8a41.039 41.039 0 0 1 41.039-41.039h232.312a41.039 41.039 0 0 1 41.039 41.039v199.8a41.039 41.039 0 0 1-41.039 41.039" fill="#f5cadf"/><path data-name="Path 10112" d="M322.34 319.734H90.028a41.039 41.039 0 0 1-41.036-41.04v-199.8a41.039 41.039 0 0 1 41.039-41.039H322.34a41.04 41.04 0 0 1 41.039 41.039v199.8a41.039 41.039 0 0 1-41.039 41.039" fill="#f5cadf"/><path data-name="Path 10113" d="M322.136 319.575H89.824a41.039 41.039 0 0 1-41.038-41.039v-199.8a41.039 41.039 0 0 1 41.039-41.039h232.311a41.039 41.039 0 0 1 41.039 41.039v199.8a41.039 41.039 0 0 1-41.039 41.039" fill="#f5cae0"/><path data-name="Path 10114" d="M321.932 319.418H89.62a41.039 41.039 0 0 1-41.04-41.039v-199.8A41.039 41.039 0 0 1 89.62 37.54h232.312a41.039 41.039 0 0 1 41.039 41.039v199.8a41.039 41.039 0 0 1-41.039 41.039" fill="#f5cbe0"/><path data-name="Path 10115" d="M321.728 319.26H89.416a41.039 41.039 0 0 1-41.042-41.04V78.42a41.04 41.04 0 0 1 41.039-41.04h232.315a41.04 41.04 0 0 1 41.039 41.04v199.8a41.039 41.039 0 0 1-41.039 41.039" fill="#f5cbe0"/><path data-name="Path 10116" d="M321.523 319.102H89.211a41.039 41.039 0 0 1-41.044-41.041v-199.8a41.039 41.039 0 0 1 41.039-41.039h232.317a41.039 41.039 0 0 1 41.044 41.039v199.8a41.039 41.039 0 0 1-41.039 41.039" fill="#f5cbe0"/><path data-name="Path 10117" d="M321.319 318.945H89.007a41.039 41.039 0 0 1-41.039-41.039v-199.8a41.04 41.04 0 0 1 41.039-41.04h232.312a41.04 41.04 0 0 1 41.039 41.04v199.8a41.039 41.039 0 0 1-41.039 41.039" fill="#f5cbe0"/><path data-name="Path 10118" d="M321.115 318.787H88.803a41.039 41.039 0 0 1-41.039-41.039v-199.8a41.039 41.039 0 0 1 41.039-41.039h232.312a41.039 41.039 0 0 1 41.04 41.039v199.8a41.039 41.039 0 0 1-41.039 41.039" fill="#f5cbe0"/><path data-name="Path 10119" d="M320.911 318.63H88.599a41.039 41.039 0 0 1-41.039-41.039v-199.8a41.039 41.039 0 0 1 41.039-41.04h232.312a41.039 41.039 0 0 1 41.038 41.039v199.8a41.039 41.039 0 0 1-41.039 41.039" fill="#f5cce0"/><path data-name="Path 10120" d="M320.707 318.471H88.395a41.039 41.039 0 0 1-41.039-41.039v-199.8a41.039 41.039 0 0 1 41.039-41.039h232.312a41.039 41.039 0 0 1 41.036 41.039v199.8a41.039 41.039 0 0 1-41.039 41.039" fill="#f5cce0"/><path data-name="Path 10121" d="M320.503 318.31H88.191a41.039 41.039 0 0 1-41.039-41.039v-199.8a41.039 41.039 0 0 1 41.039-41.039h232.312a41.039 41.039 0 0 1 41.034 41.042v199.8a41.039 41.039 0 0 1-41.034 41.036" fill="#f5cce1"/><path data-name="Path 10122" d="M320.299 318.16H87.987a41.039 41.039 0 0 1-41.039-41.039v-199.8a41.039 41.039 0 0 1 41.039-41.039h232.312a41.039 41.039 0 0 1 41.039 41.039v199.8a41.039 41.039 0 0 1-41.039 41.039" fill="#f6cce1"/><path data-name="Path 10123" d="M320.095 317.998H87.783a41.039 41.039 0 0 1-41.039-41.039v-199.8A41.039 41.039 0 0 1 87.783 36.12h232.312a41.039 41.039 0 0 1 41.039 41.039v199.8a41.039 41.039 0 0 1-41.039 41.039" fill="#f6cce1"/><path data-name="Path 10124" d="M319.891 317.841H87.579a41.039 41.039 0 0 1-41.039-41.039v-199.8A41.04 41.04 0 0 1 87.579 35.96h232.312A41.04 41.04 0 0 1 360.93 77v199.8a41.039 41.039 0 0 1-41.039 41.039" fill="#f6cde1"/><path data-name="Path 10125" d="M319.686 317.683H87.374a41.039 41.039 0 0 1-41.039-41.039v-199.8a41.039 41.039 0 0 1 41.039-41.035h232.312a41.039 41.039 0 0 1 41.039 41.039v199.8a41.039 41.039 0 0 1-41.039 41.039" fill="#f6cde1"/><path data-name="Path 10126" d="M319.482 317.525H87.17a41.039 41.039 0 0 1-41.039-41.039v-199.8A41.039 41.039 0 0 1 87.17 35.647h232.312a41.039 41.039 0 0 1 41.039 41.039v199.8a41.039 41.039 0 0 1-41.039 41.039" fill="#f6cde1"/><path data-name="Path 10127" d="M319.278 317.367H86.966a41.039 41.039 0 0 1-41.039-41.039v-199.8a41.039 41.039 0 0 1 41.039-41.039h232.312a41.039 41.039 0 0 1 41.039 41.039v199.8a41.039 41.039 0 0 1-41.039 41.039" fill="#f6cde1"/><path data-name="Path 10128" d="M319.074 317.21H86.762a41.039 41.039 0 0 1-41.039-41.04V76.37a41.039 41.039 0 0 1 41.039-41.039h232.312a41.039 41.039 0 0 1 41.039 41.039v199.8a41.039 41.039 0 0 1-41.039 41.039" fill="#f6cee1"/><path data-name="Path 10129" d="M318.87 317.052H86.558a41.039 41.039 0 0 1-41.039-41.044v-199.8a41.039 41.039 0 0 1 41.039-41.039H318.87a41.039 41.039 0 0 1 41.039 41.039v199.8a41.039 41.039 0 0 1-41.039 41.039" fill="#f6cee1"/><path data-name="Path 10130" d="M318.666 316.894H86.354a41.039 41.039 0 0 1-41.039-41.036v-199.8a41.039 41.039 0 0 1 41.039-41.039h232.312a41.039 41.039 0 0 1 41.039 41.039v199.8a41.039 41.039 0 0 1-41.039 41.039" fill="#f6cee2"/><path data-name="Path 10131" d="M318.461 316.737H86.149a41.039 41.039 0 0 1-41.039-41.039v-199.8a41.04 41.04 0 0 1 41.039-41.04h232.312a41.04 41.04 0 0 1 41.039 41.04v199.8a41.039 41.039 0 0 1-41.039 41.039" fill="#f6cee2"/><path data-name="Path 10132" d="M318.258 316.579H85.946a41.039 41.039 0 0 1-41.039-41.039V75.74a41.039 41.039 0 0 1 41.039-41.039h232.312a41.039 41.039 0 0 1 41.039 41.039v199.8a41.039 41.039 0 0 1-41.039 41.039" fill="#f6cee2"/><path data-name="Path 10133" d="M318.054 316.421H85.742a41.039 41.039 0 0 1-41.039-41.039v-199.8a41.04 41.04 0 0 1 41.039-41.04h232.312a41.04 41.04 0 0 1 41.039 41.04v199.8a41.039 41.039 0 0 1-41.039 41.039" fill="#f6cfe2"/><path data-name="Path 10134" d="M317.849 316.263H85.537a41.039 41.039 0 0 1-41.039-41.039v-199.8a41.039 41.039 0 0 1 41.039-41.039h232.312a41.039 41.039 0 0 1 41.039 41.039v199.8a41.039 41.039 0 0 1-41.039 41.039" fill="#f6cfe2"/><path data-name="Path 10135" d="M317.649 316.107H85.333a41.039 41.039 0 0 1-41.039-41.039v-199.8a41.039 41.039 0 0 1 41.039-41.041h232.316a41.039 41.039 0 0 1 41.039 41.039v199.8a41.039 41.039 0 0 1-41.039 41.041" fill="#f6cfe2"/><path data-name="Path 10136" d="M317.443 315.948H85.129a41.039 41.039 0 0 1-41.039-41.039v-199.8A41.039 41.039 0 0 1 85.129 34.07h232.314a41.039 41.039 0 0 1 41.039 41.039v199.8a41.039 41.039 0 0 1-41.039 41.039" fill="#f6cfe2"/><path data-name="Path 10137" d="M317.237 315.79H84.925a41.039 41.039 0 0 1-41.039-41.039v-199.8a41.039 41.039 0 0 1 41.039-41.039h232.312a41.039 41.039 0 0 1 41.039 41.039v199.8a41.039 41.039 0 0 1-41.039 41.039" fill="#f6cfe3"/><path data-name="Path 10138" d="M317.031 315.633H84.721a41.039 41.039 0 0 1-41.039-41.039v-199.8a41.04 41.04 0 0 1 41.039-41.038h232.31a41.04 41.04 0 0 1 41.039 41.04v199.8a41.039 41.039 0 0 1-41.039 41.037" fill="#f6d0e3"/><path data-name="Path 10139" d="M316.825 315.474H84.517a41.039 41.039 0 0 1-41.039-41.039v-199.8a41.039 41.039 0 0 1 41.039-41.039h232.308a41.039 41.039 0 0 1 41.039 41.039v199.8a41.039 41.039 0 0 1-41.039 41.039" fill="#f6d0e3"/><path data-name="Path 10140" d="M316.624 315.317H84.312a41.039 41.039 0 0 1-41.039-41.039v-199.8a41.04 41.04 0 0 1 41.039-41.04h232.312a41.04 41.04 0 0 1 41.039 41.04v199.8a41.039 41.039 0 0 1-41.039 41.039" fill="#f6d0e3"/><path data-name="Path 10141" d="M316.42 315.159H84.112a41.039 41.039 0 0 1-41.039-41.039V74.32a41.039 41.039 0 0 1 41.039-41.039H316.42a41.039 41.039 0 0 1 41.039 41.039v199.8a41.039 41.039 0 0 1-41.039 41.039" fill="#f6d0e3"/><path data-name="Path 10142" d="M316.217 315.002H83.906a41.039 41.039 0 0 1-41.04-41.04v-199.8a41.039 41.039 0 0 1 41.04-41.039h232.311a41.04 41.04 0 0 1 41.039 41.039v199.8a41.039 41.039 0 0 1-41.039 41.039" fill="#f6d0e3"/><path data-name="Path 10143" d="M316.012 314.843H83.699a41.039 41.039 0 0 1-41.038-41.039v-199.8a41.039 41.039 0 0 1 41.038-41.039h232.313a41.039 41.039 0 0 1 41.039 41.039v199.8a41.039 41.039 0 0 1-41.039 41.039" fill="#f6d0e3"/><path data-name="Path 10144" d="M315.808 314.686H83.493a41.039 41.039 0 0 1-41.039-41.039v-199.8a41.039 41.039 0 0 1 41.039-41.039h232.315a41.039 41.039 0 0 1 41.039 41.039v199.8a41.039 41.039 0 0 1-41.039 41.039" fill="#f6d1e3"/><path data-name="Path 10145" d="M315.604 314.528H83.292a41.039 41.039 0 0 1-41.039-41.039v-199.8A41.039 41.039 0 0 1 83.292 32.65h232.312a41.039 41.039 0 0 1 41.039 41.039v199.8a41.039 41.039 0 0 1-41.039 41.039" fill="#f6d1e4"/><path data-name="Path 10146" d="M315.4 314.37H83.088a41.039 41.039 0 0 1-41.039-41.039v-199.8a41.039 41.039 0 0 1 41.039-41.039H315.4a41.039 41.039 0 0 1 41.039 41.039v199.8A41.039 41.039 0 0 1 315.4 314.37" fill="#f6d1e4"/><path data-name="Path 10147" d="M315.196 314.213H82.884a41.039 41.039 0 0 1-41.039-41.04V73.374a41.04 41.04 0 0 1 41.039-41.04h232.312a41.04 41.04 0 0 1 41.039 41.04v199.8a41.039 41.039 0 0 1-41.039 41.039" fill="#f6d1e4"/><path data-name="Path 10148" d="M314.991 314.053H82.679a41.039 41.039 0 0 1-41.039-41.039v-199.8a41.039 41.039 0 0 1 41.039-41.039h232.312a41.039 41.039 0 0 1 41.039 41.039v199.8a41.039 41.039 0 0 1-41.039 41.039" fill="#f6d1e4"/><path data-name="Path 10149" d="M314.787 313.898H82.475a41.039 41.039 0 0 1-41.039-41.039v-199.8a41.04 41.04 0 0 1 41.039-41.04h232.312a41.04 41.04 0 0 1 41.039 41.04v199.8a41.039 41.039 0 0 1-41.039 41.039" fill="#f6d2e4"/><path data-name="Path 10150" d="M314.583 313.739H82.271A41.039 41.039 0 0 1 41.232 272.7V72.9a41.039 41.039 0 0 1 41.039-41.039h232.312A41.039 41.039 0 0 1 355.622 72.9v199.8a41.039 41.039 0 0 1-41.039 41.039" fill="#f6d2e4"/><path data-name="Path 10151" d="M314.379 313.582H82.067a41.039 41.039 0 0 1-41.039-41.039v-199.8a41.039 41.039 0 0 1 41.039-41.041h232.312a41.039 41.039 0 0 1 41.039 41.039v199.8a41.039 41.039 0 0 1-41.039 41.039" fill="#f6d2e4"/><path data-name="Path 10152" d="M314.175 313.424H81.863a41.039 41.039 0 0 1-41.039-41.039v-199.8a41.039 41.039 0 0 1 41.039-41.039h232.312a41.039 41.039 0 0 1 41.039 41.039v199.8a41.039 41.039 0 0 1-41.039 41.039" fill="#f7d2e4"/><path data-name="Path 10153" d="M313.971 313.266H81.659a41.039 41.039 0 0 1-41.039-41.039v-199.8a41.039 41.039 0 0 1 41.039-41.039h232.312a41.039 41.039 0 0 1 41.039 41.039v199.8a41.039 41.039 0 0 1-41.039 41.039" fill="#f7d2e4"/><path data-name="Path 10154" d="M313.767 313.109H81.455a41.039 41.039 0 0 1-41.039-41.039V72.27a41.04 41.04 0 0 1 41.039-41.04h232.312a41.04 41.04 0 0 1 41.039 41.04v199.8a41.039 41.039 0 0 1-41.039 41.039" fill="#f7d3e5"/><path data-name="Path 10155" d="M313.563 312.951H81.251a41.039 41.039 0 0 1-41.039-41.039v-199.8a41.039 41.039 0 0 1 41.039-41.039h232.312a41.039 41.039 0 0 1 41.039 41.039v199.8a41.039 41.039 0 0 1-41.039 41.039" fill="#f7d3e5"/><path data-name="Path 10156" d="M313.359 312.793H81.047a41.039 41.039 0 0 1-41.039-41.042v-199.8a41.04 41.04 0 0 1 41.039-41.04h232.312a41.04 41.04 0 0 1 41.039 41.04v199.8a41.039 41.039 0 0 1-41.039 41.039" fill="#f7d3e5"/><path data-name="Path 10157" d="M313.154 312.635H80.842A41.039 41.039 0 0 1 39.803 271.6V71.8a41.039 41.039 0 0 1 41.039-41.043h232.312A41.039 41.039 0 0 1 354.193 71.8v199.8a41.039 41.039 0 0 1-41.039 41.039" fill="#f7d3e5"/><path data-name="Path 10158" d="M312.95 312.477H80.638a41.039 41.039 0 0 1-41.039-41.039v-199.8a41.039 41.039 0 0 1 41.039-41.039H312.95a41.039 41.039 0 0 1 41.039 41.039v199.8a41.039 41.039 0 0 1-41.039 41.039" fill="#f7d4e5"/><path data-name="Path 10159" d="M312.746 312.32H80.434a41.039 41.039 0 0 1-41.039-41.039v-199.8a41.039 41.039 0 0 1 41.039-41.039h232.312a41.039 41.039 0 0 1 41.039 41.039v199.8a41.039 41.039 0 0 1-41.039 41.039" fill="#f7d4e5"/><path data-name="Path 10160" d="M312.542 312.162H80.23a41.039 41.039 0 0 1-41.036-41.039v-199.8a41.039 41.039 0 0 1 41.039-41.039h232.309a41.039 41.039 0 0 1 41.039 41.039v199.8a41.039 41.039 0 0 1-41.039 41.039" fill="#f7d4e5"/><path data-name="Path 10161" d="M312.338 312.004H80.026a41.039 41.039 0 0 1-41.038-41.039v-199.8a41.039 41.039 0 0 1 41.039-41.039h232.311a41.039 41.039 0 0 1 41.039 41.039v199.8a41.039 41.039 0 0 1-41.039 41.039" fill="#f7d4e5"/><path data-name="Path 10162" d="M312.133 311.849H79.822a41.039 41.039 0 0 1-41.041-41.042v-199.8A41.039 41.039 0 0 1 79.82 29.968h232.313a41.039 41.039 0 0 1 41.039 41.039v199.8a41.039 41.039 0 0 1-41.039 41.042" fill="#f7d4e6"/><path data-name="Path 10163" d="M311.93 311.689H79.618a41.039 41.039 0 0 1-41.043-41.04V70.85a41.04 41.04 0 0 1 41.039-41.04H311.93a41.04 41.04 0 0 1 41.039 41.04v199.8a41.039 41.039 0 0 1-41.039 41.039" fill="#f7d5e6"/><path data-name="Path 10164" d="M311.726 311.531H79.414a41.039 41.039 0 0 1-41.039-41.039v-199.8a41.039 41.039 0 0 1 41.039-41.039h232.312a41.039 41.039 0 0 1 41.043 41.039v199.8a41.039 41.039 0 0 1-41.039 41.039" fill="#f7d5e6"/><path data-name="Path 10165" d="M311.522 311.374H79.21a41.039 41.039 0 0 1-41.039-41.039V70.534A41.039 41.039 0 0 1 79.21 29.499h232.312a41.039 41.039 0 0 1 41.041 41.035v199.8a41.039 41.039 0 0 1-41.039 41.039" fill="#f7d5e6"/><path data-name="Path 10166" d="M311.317 311.216H79.005a41.039 41.039 0 0 1-41.039-41.039v-199.8a41.039 41.039 0 0 1 41.039-41.039h232.312a41.039 41.039 0 0 1 41.039 41.039v199.8a41.039 41.039 0 0 1-41.039 41.039" fill="#f7d5e6"/><path data-name="Path 10167" d="M311.113 311.058H78.801a41.039 41.039 0 0 1-41.039-41.039v-199.8A41.039 41.039 0 0 1 78.801 29.18h232.312a41.039 41.039 0 0 1 41.037 41.039v199.8a41.039 41.039 0 0 1-41.039 41.039" fill="#f7d5e6"/><path data-name="Path 10168" d="M310.909 310.9H78.597a41.039 41.039 0 0 1-41.039-41.039v-199.8a41.039 41.039 0 0 1 41.039-41.039h232.312a41.039 41.039 0 0 1 41.035 41.039v199.8a41.039 41.039 0 0 1-41.039 41.039" fill="#f7d6e6"/><path data-name="Path 10169" d="M310.705 310.742H78.393a41.039 41.039 0 0 1-41.039-41.039v-199.8a41.039 41.039 0 0 1 41.039-41.039h232.312a41.039 41.039 0 0 1 41.039 41.039v199.8a41.039 41.039 0 0 1-41.039 41.039" fill="#f7d6e6"/><path data-name="Path 10170" d="M310.501 310.585H78.189a41.039 41.039 0 0 1-41.039-41.038v-199.8a41.04 41.04 0 0 1 41.039-41.04h232.312a41.04 41.04 0 0 1 41.039 41.04v199.8a41.039 41.039 0 0 1-41.039 41.039" fill="#f7d6e7"/><path data-name="Path 10171" d="M310.297 310.427H77.985a41.039 41.039 0 0 1-41.039-41.039v-199.8a41.039 41.039 0 0 1 41.039-41.039h232.312a41.039 41.039 0 0 1 41.039 41.039v199.8a41.039 41.039 0 0 1-41.039 41.039" fill="#f7d6e7"/><path data-name="Path 10172" d="M310.092 310.27H77.78a41.039 41.039 0 0 1-41.039-41.039v-199.8a41.04 41.04 0 0 1 41.039-41.04h232.312a41.04 41.04 0 0 1 41.039 41.04v199.8a41.039 41.039 0 0 1-41.039 41.039" fill="#f7d6e7"/><path data-name="Path 10173" d="M309.889 310.111H77.577a41.039 41.039 0 0 1-41.039-41.039v-199.8a41.039 41.039 0 0 1 41.039-41.039h232.312a41.039 41.039 0 0 1 41.039 41.039v199.8a41.039 41.039 0 0 1-41.039 41.039" fill="#f7d7e7"/><path data-name="Path 10174" d="M309.685 309.954H77.373a41.039 41.039 0 0 1-41.039-41.039v-199.8a41.039 41.039 0 0 1 41.039-41.039h232.312a41.039 41.039 0 0 1 41.039 41.039v199.8a41.039 41.039 0 0 1-41.039 41.039" fill="#f7d7e7"/><path data-name="Path 10175" d="M309.48 309.796H77.168a41.039 41.039 0 0 1-41.039-41.039v-199.8a41.039 41.039 0 0 1 41.039-41.039H309.48a41.039 41.039 0 0 1 41.039 41.039v199.8a41.039 41.039 0 0 1-41.039 41.039" fill="#f7d7e7"/><path data-name="Path 10176" d="M309.276 309.638H76.964a41.039 41.039 0 0 1-41.039-41.039v-199.8A41.039 41.039 0 0 1 76.964 27.76h232.312a41.039 41.039 0 0 1 41.039 41.039v199.8a41.039 41.039 0 0 1-41.039 41.039" fill="#f7d7e7"/><path data-name="Path 10177" d="M309.072 309.481H76.76a41.039 41.039 0 0 1-41.039-41.039v-199.8a41.04 41.04 0 0 1 41.039-41.04h232.312a41.04 41.04 0 0 1 41.039 41.04v199.8a41.039 41.039 0 0 1-41.039 41.039" fill="#f7d7e7"/><path data-name="Path 10178" d="M308.868 309.323H76.556a41.039 41.039 0 0 1-41.039-41.039v-199.8a41.039 41.039 0 0 1 41.039-41.039h232.312a41.039 41.039 0 0 1 41.039 41.039v199.8a41.039 41.039 0 0 1-41.039 41.039" fill="#f8d8e8"/><path data-name="Path 10179" d="M308.664 309.165H76.352a41.039 41.039 0 0 1-41.039-41.04V68.326a41.04 41.04 0 0 1 41.039-41.04h232.312a41.04 41.04 0 0 1 41.039 41.04v199.8a41.039 41.039 0 0 1-41.039 41.039" fill="#f8d8e8"/><path data-name="Path 10180" d="M308.46 309.008H76.148a41.039 41.039 0 0 1-41.039-41.039v-199.8A41.039 41.039 0 0 1 76.148 27.13H308.46a41.039 41.039 0 0 1 41.039 41.039v199.8a41.039 41.039 0 0 1-41.039 41.039" fill="#f8d8e8"/><path data-name="Path 10181" d="M308.255 308.85H75.943a41.039 41.039 0 0 1-41.039-41.039v-199.8a41.039 41.039 0 0 1 41.039-41.039h232.312a41.039 41.039 0 0 1 41.039 41.039v199.8a41.039 41.039 0 0 1-41.039 41.039" fill="#f8d8e8"/><path data-name="Path 10182" d="M308.051 308.692H75.739A41.039 41.039 0 0 1 34.7 267.653v-199.8a41.039 41.039 0 0 1 41.039-41.039h232.312a41.039 41.039 0 0 1 41.039 41.039v199.8a41.039 41.039 0 0 1-41.039 41.039" fill="#f8d9e8"/><path data-name="Path 10183" d="M307.851 308.535H75.536a41.039 41.039 0 0 1-41.039-41.041v-199.8a41.039 41.039 0 0 1 41.039-41.039h232.315a41.039 41.039 0 0 1 41.036 41.039v199.8a41.039 41.039 0 0 1-41.036 41.041" fill="#f8d9e8"/><path data-name="Path 10184" d="M307.644 308.377H75.331a41.039 41.039 0 0 1-41.039-41.039v-199.8a41.039 41.039 0 0 1 41.039-41.039h232.313a41.039 41.039 0 0 1 41.039 41.039v199.8a41.039 41.039 0 0 1-41.039 41.039" fill="#f8d9e8"/><path data-name="Path 10185" d="M307.438 308.219H75.127a41.039 41.039 0 0 1-41.039-41.039V67.38a41.039 41.039 0 0 1 41.039-41.039h232.311a41.039 41.039 0 0 1 41.04 41.039v199.8a41.039 41.039 0 0 1-41.04 41.039" fill="#f8d9e8"/><path data-name="Path 10186" d="M307.232 308.062H74.923a41.039 41.039 0 0 1-41.039-41.039v-199.8a41.04 41.04 0 0 1 41.039-41.04h232.309a41.04 41.04 0 0 1 41.039 41.04v199.8a41.039 41.039 0 0 1-41.039 41.039" fill="#f8d9e9"/><path data-name="Path 10187" d="M307.026 307.904H74.719a41.039 41.039 0 0 1-41.039-41.039v-199.8a41.039 41.039 0 0 1 41.039-41.039h232.307a41.039 41.039 0 0 1 41.039 41.039v199.8a41.039 41.039 0 0 1-41.039 41.039" fill="#f8dae9"/><path data-name="Path 10188" d="M306.827 307.743H74.52a41.039 41.039 0 0 1-41.039-41.039V66.907A41.039 41.039 0 0 1 74.52 25.868h232.307a41.039 41.039 0 0 1 41.039 41.039v199.8a41.039 41.039 0 0 1-41.039 41.036" fill="#f8dae9"/><path data-name="Path 10189" d="M306.623 307.592H74.314a41.039 41.039 0 0 1-41.039-41.039V66.749A41.039 41.039 0 0 1 74.314 25.71h232.309a41.039 41.039 0 0 1 41.039 41.039v199.8a41.039 41.039 0 0 1-41.039 41.043" fill="#f8dae9"/><path data-name="Path 10190" d="M306.418 307.43H74.107a41.039 41.039 0 0 1-41.04-41.039v-199.8a41.039 41.039 0 0 1 41.04-41.039h232.311a41.039 41.039 0 0 1 41.039 41.039v199.8a41.039 41.039 0 0 1-41.039 41.039" fill="#f8dae9"/><path data-name="Path 10191" d="M306.214 307.273H73.901a41.039 41.039 0 0 1-41.039-41.039v-199.8a41.039 41.039 0 0 1 41.039-41.042h232.313a41.039 41.039 0 0 1 41.039 41.039v199.8a41.039 41.039 0 0 1-41.039 41.039" fill="#f8dae9"/><path data-name="Path 10192" d="M306.01 307.115H73.695a41.039 41.039 0 0 1-41.039-41.039v-199.8a41.039 41.039 0 0 1 41.039-41.039H306.01a41.039 41.039 0 0 1 41.039 41.039v199.8a41.039 41.039 0 0 1-41.039 41.039" fill="#f8dbe9"/><path data-name="Path 10193" d="M305.806 306.958H73.494a41.039 41.039 0 0 1-41.039-41.039v-199.8a41.04 41.04 0 0 1 41.039-41.04h232.312a41.04 41.04 0 0 1 41.039 41.04v199.8a41.039 41.039 0 0 1-41.039 41.039" fill="#f8dbe9"/><path data-name="Path 10194" d="M305.602 306.799H73.29a41.039 41.039 0 0 1-41.039-41.039V65.96A41.039 41.039 0 0 1 73.29 24.921h232.312a41.039 41.039 0 0 1 41.039 41.039v199.8a41.039 41.039 0 0 1-41.039 41.039" fill="#f8dbea"/><path data-name="Path 10195" d="M305.398 306.642H73.086a41.039 41.039 0 0 1-41.039-41.039v-199.8a41.039 41.039 0 0 1 41.039-41.039h232.312a41.039 41.039 0 0 1 41.039 41.039v199.8a41.039 41.039 0 0 1-41.039 41.039" fill="#f8dbea"/><path data-name="Path 10196" d="M305.194 306.484H72.882a41.039 41.039 0 0 1-41.039-41.044V65.645a41.039 41.039 0 0 1 41.039-41.039h232.312a41.039 41.039 0 0 1 41.039 41.039V265.44a41.039 41.039 0 0 1-41.039 41.039" fill="#f8dbea"/><path data-name="Path 10197" d="M304.99 306.326H72.678a41.039 41.039 0 0 1-41.039-41.036V65.49a41.039 41.039 0 0 1 41.039-41.039H304.99a41.039 41.039 0 0 1 41.039 41.039v199.8a41.039 41.039 0 0 1-41.039 41.039" fill="#f8dbea"/><path data-name="Path 10198" d="M304.786 306.169H72.474a41.039 41.039 0 0 1-41.039-41.039V65.33a41.039 41.039 0 0 1 41.039-41.039h232.312a41.039 41.039 0 0 1 41.039 41.039v199.8a41.039 41.039 0 0 1-41.039 41.039" fill="#f9dcea"/><path data-name="Path 10199" d="M304.581 306.011H72.269a41.039 41.039 0 0 1-41.039-41.039v-199.8a41.039 41.039 0 0 1 41.039-41.039h232.312a41.039 41.039 0 0 1 41.039 41.039v199.8a41.039 41.039 0 0 1-41.039 41.039" fill="#f9dcea"/><path data-name="Path 10200" d="M304.377 305.854H72.065a41.039 41.039 0 0 1-41.039-41.039v-199.8a41.04 41.04 0 0 1 41.039-41.04h232.312a41.04 41.04 0 0 1 41.039 41.04v199.8a41.039 41.039 0 0 1-41.039 41.039" fill="#f9dcea"/><path data-name="Path 10201" d="M304.173 305.695H71.861a41.039 41.039 0 0 1-41.039-41.039v-199.8a41.039 41.039 0 0 1 41.039-41.039h232.312a41.039 41.039 0 0 1 41.039 41.039v199.8a41.039 41.039 0 0 1-41.039 41.039" fill="#f9dcea"/><path data-name="Path 10202" d="M303.969 305.539H71.657a41.039 41.039 0 0 1-41.039-41.04v-199.8A41.039 41.039 0 0 1 71.657 23.66h232.312a41.039 41.039 0 0 1 41.039 41.039v199.8a41.039 41.039 0 0 1-41.039 41.04" fill="#f9dcea"/><path data-name="Path 10203" d="M303.765 305.38H71.453a41.039 41.039 0 0 1-41.039-41.039v-199.8a41.039 41.039 0 0 1 41.039-41.039h232.312a41.039 41.039 0 0 1 41.039 41.039v199.8a41.039 41.039 0 0 1-41.039 41.039" fill="#f9ddeb"/><path data-name="Path 10204" d="M303.561 305.222H71.249a41.039 41.039 0 0 1-41.039-41.039v-199.8a41.039 41.039 0 0 1 41.039-41.039h232.312A41.039 41.039 0 0 1 344.6 64.383v199.8a41.039 41.039 0 0 1-41.039 41.039" fill="#f9ddeb"/><path data-name="Path 10205" d="M303.357 305.064H71.045a41.039 41.039 0 0 1-41.039-41.039v-199.8a41.039 41.039 0 0 1 41.039-41.037h232.312a41.039 41.039 0 0 1 41.039 41.039v199.8a41.039 41.039 0 0 1-41.039 41.039" fill="#f9ddeb"/><path data-name="Path 10206" d="M303.153 304.907H70.841a41.039 41.039 0 0 1-41.039-41.039v-199.8a41.039 41.039 0 0 1 41.039-41.039h232.312a41.039 41.039 0 0 1 41.039 41.039v199.8a41.039 41.039 0 0 1-41.039 41.039" fill="#f9ddeb"/><path data-name="Path 10207" d="M302.949 304.749H70.637a41.039 41.039 0 0 1-41.035-41.039V63.91a41.039 41.039 0 0 1 41.035-41.039h232.312a41.039 41.039 0 0 1 41.039 41.039v199.8a41.039 41.039 0 0 1-41.039 41.039" fill="#f9ddeb"/><path data-name="Path 10208" d="M302.744 304.591H70.432a41.039 41.039 0 0 1-41.037-41.039v-199.8a41.039 41.039 0 0 1 41.037-41.039h232.312a41.039 41.039 0 0 1 41.039 41.039v199.8a41.039 41.039 0 0 1-41.039 41.039" fill="#f9deeb"/><path data-name="Path 10209" d="M302.54 304.433H70.228a41.039 41.039 0 0 1-41.039-41.039v-199.8a41.039 41.039 0 0 1 41.039-41.039H302.54a41.039 41.039 0 0 1 41.039 41.039v199.8a41.039 41.039 0 0 1-41.039 41.039" fill="#f9deeb"/><path data-name="Path 10210" d="M302.336 304.276H70.024a41.039 41.039 0 0 1-41.041-41.039v-199.8a41.039 41.039 0 0 1 41.041-41.039h232.312a41.039 41.039 0 0 1 41.039 41.039v199.8a41.039 41.039 0 0 1-41.039 41.039" fill="#f9deeb"/><path data-name="Path 10211" d="M302.132 304.118H69.82a41.039 41.039 0 0 1-41.043-41.039v-199.8A41.039 41.039 0 0 1 69.82 22.24h232.312a41.039 41.039 0 0 1 41.039 41.039v199.8a41.039 41.039 0 0 1-41.039 41.039" fill="#f9deec"/><path data-name="Path 10212" d="M301.928 303.96H69.616a41.039 41.039 0 0 1-41.039-41.039v-199.8a41.039 41.039 0 0 1 41.039-41.039h232.312a41.039 41.039 0 0 1 41.043 41.039v199.8a41.039 41.039 0 0 1-41.039 41.039" fill="#f9dfec"/><path data-name="Path 10213" d="M301.724 303.803H69.412a41.039 41.039 0 0 1-41.039-41.039v-199.8a41.039 41.039 0 0 1 41.039-41.039h232.312a41.039 41.039 0 0 1 41.04 41.039v199.8a41.039 41.039 0 0 1-41.039 41.039" fill="#f9dfec"/><path data-name="Path 10214" d="M301.52 303.645H69.208a41.039 41.039 0 0 1-41.039-41.039v-199.8a41.039 41.039 0 0 1 41.039-41.039H301.52a41.039 41.039 0 0 1 41.038 41.039v199.8a41.039 41.039 0 0 1-41.039 41.039" fill="#f9dfec"/><path data-name="Path 10215" d="M301.316 303.485H69.004a41.039 41.039 0 0 1-41.039-41.039V62.648a41.039 41.039 0 0 1 41.039-41.039h232.312a41.039 41.039 0 0 1 41.036 41.039v199.8a41.039 41.039 0 0 1-41.036 41.037" fill="#f9dfec"/><path data-name="Path 10216" d="M301.111 303.33H68.799a41.039 41.039 0 0 1-41.039-41.039v-199.8a41.04 41.04 0 0 1 41.039-41.04h232.312a41.04 41.04 0 0 1 41.039 41.04v199.8a41.039 41.039 0 0 1-41.039 41.039" fill="#f9dfec"/><path data-name="Path 10217" d="M300.907 303.172H68.595a41.039 41.039 0 0 1-41.039-41.039v-199.8a41.039 41.039 0 0 1 41.039-41.039h232.312a41.039 41.039 0 0 1 41.039 41.039v199.8a41.039 41.039 0 0 1-41.039 41.039" fill="#f9e0ec"/><path data-name="Path 10218" d="M300.703 303.014H68.391a41.039 41.039 0 0 1-41.039-41.039v-199.8a41.039 41.039 0 0 1 41.039-41.04h232.312a41.039 41.039 0 0 1 41.039 41.04v199.8a41.039 41.039 0 0 1-41.039 41.039" fill="#f9e0ec"/><path data-name="Path 10219" d="M300.499 302.856H68.187a41.039 41.039 0 0 1-41.039-41.039v-199.8a41.039 41.039 0 0 1 41.039-41.039h232.312a41.039 41.039 0 0 1 41.039 41.039v199.8a41.039 41.039 0 0 1-41.039 41.039" fill="#f9e0ec"/><path data-name="Path 10220" d="M300.295 302.698H67.983a41.039 41.039 0 0 1-41.039-41.039v-199.8A41.039 41.039 0 0 1 67.983 20.82h232.312a41.039 41.039 0 0 1 41.039 41.039v199.8a41.039 41.039 0 0 1-41.039 41.039" fill="#f9e0ed"/><path data-name="Path 10221" d="M300.091 302.541H67.779a41.039 41.039 0 0 1-41.039-41.039v-199.8a41.039 41.039 0 0 1 41.039-41.039h232.312a41.039 41.039 0 0 1 41.039 41.039v199.8a41.039 41.039 0 0 1-41.039 41.039" fill="#f9e0ed"/><path data-name="Path 10222" d="M299.886 302.383H67.574a41.039 41.039 0 0 1-41.039-41.039v-199.8a41.039 41.039 0 0 1 41.039-41.039h232.312a41.039 41.039 0 0 1 41.039 41.039v199.8a41.039 41.039 0 0 1-41.039 41.039" fill="#f9e1ed"/><path data-name="Path 10223" d="M299.683 302.225H67.371a41.039 41.039 0 0 1-41.039-41.042v-199.8a41.039 41.039 0 0 1 41.039-41.036h232.312a41.039 41.039 0 0 1 41.039 41.036v199.8a41.039 41.039 0 0 1-41.039 41.039" fill="#f9e1ed"/><path data-name="Path 10224" d="M299.479 302.067H67.167a41.039 41.039 0 0 1-41.039-41.039V61.233a41.039 41.039 0 0 1 41.039-41.044h232.312a41.039 41.039 0 0 1 41.039 41.044v199.8a41.039 41.039 0 0 1-41.039 41.039" fill="#f9e1ed"/><path data-name="Path 10225" d="M299.274 301.91H66.962a41.039 41.039 0 0 1-41.039-41.039v-199.8a41.039 41.039 0 0 1 41.039-41.039h232.312a41.039 41.039 0 0 1 41.039 41.039v199.8a41.039 41.039 0 0 1-41.039 41.039" fill="#f9e1ed"/><path data-name="Path 10226" d="M299.07 301.752H66.758a41.039 41.039 0 0 1-41.039-41.039v-199.8a41.039 41.039 0 0 1 41.039-41.039H299.07a41.039 41.039 0 0 1 41.039 41.039v199.8a41.039 41.039 0 0 1-41.039 41.039" fill="#f9e1ed"/><path data-name="Path 10227" d="M298.866 301.594H66.554a41.039 41.039 0 0 1-41.039-41.039v-199.8a41.039 41.039 0 0 1 41.039-41.039h232.312a41.039 41.039 0 0 1 41.039 41.039v199.8a41.039 41.039 0 0 1-41.039 41.039" fill="#f9e2ed"/><path data-name="Path 10228" d="M298.662 301.437H66.35a41.039 41.039 0 0 1-41.039-41.039v-199.8A41.039 41.039 0 0 1 66.35 19.559h232.312a41.039 41.039 0 0 1 41.039 41.039v199.8a41.039 41.039 0 0 1-41.039 41.039" fill="#fae2ee"/><path data-name="Path 10229" d="M298.458 301.282H66.146a41.039 41.039 0 0 1-41.039-41.039V60.44a41.039 41.039 0 0 1 41.039-41.039h232.312a41.039 41.039 0 0 1 41.039 41.039v199.8a41.039 41.039 0 0 1-41.039 41.042" fill="#fae2ee"/><path data-name="Path 10230" d="M298.254 301.121H65.942a41.039 41.039 0 0 1-41.039-41.039v-199.8a41.039 41.039 0 0 1 41.039-41.039h232.312a41.039 41.039 0 0 1 41.039 41.039v199.8a41.039 41.039 0 0 1-41.039 41.039" fill="#fae2ee"/><path data-name="Path 10231" d="M298.052 300.963H65.737a41.039 41.039 0 0 1-41.039-41.039v-199.8a41.039 41.039 0 0 1 41.039-41.043h232.315a41.039 41.039 0 0 1 41.039 41.039v199.8a41.039 41.039 0 0 1-41.039 41.043" fill="#fae2ee"/><path data-name="Path 10232" d="M297.846 300.806H65.534a41.039 41.039 0 0 1-41.039-41.039v-199.8a41.039 41.039 0 0 1 41.039-41.036h232.312a41.039 41.039 0 0 1 41.039 41.039v199.8a41.039 41.039 0 0 1-41.039 41.036" fill="#fae3ee"/><path data-name="Path 10233" d="M297.64 300.648H65.33a41.039 41.039 0 0 1-41.039-41.039v-199.8A41.039 41.039 0 0 1 65.33 18.77h232.31a41.039 41.039 0 0 1 41.039 41.039v199.8a41.039 41.039 0 0 1-41.039 41.039" fill="#fae3ee"/><path data-name="Path 10234" d="M297.433 300.49H65.125a41.039 41.039 0 0 1-41.039-41.039v-199.8a41.039 41.039 0 0 1 41.039-41.039h232.308a41.039 41.039 0 0 1 41.039 41.039v199.8a41.039 41.039 0 0 1-41.039 41.039" fill="#fae3ee"/><path data-name="Path 10235" d="M297.233 300.332H64.921a41.039 41.039 0 0 1-41.039-41.039v-199.8a41.039 41.039 0 0 1 41.039-41.039h232.312a41.039 41.039 0 0 1 41.039 41.039v199.8a41.039 41.039 0 0 1-41.039 41.039" fill="#fae3ef"/><path data-name="Path 10236" d="M297.029 300.175H64.721a41.039 41.039 0 0 1-41.039-41.039v-199.8a41.039 41.039 0 0 1 41.039-41.039h232.308a41.039 41.039 0 0 1 41.039 41.039v199.8a41.039 41.039 0 0 1-41.039 41.039" fill="#fae4ef"/><path data-name="Path 10237" d="M296.825 300.017H64.515a41.039 41.039 0 0 1-41.041-41.037V59.18a41.039 41.039 0 0 1 41.041-41.041h232.31a41.039 41.039 0 0 1 41.039 41.041v199.8a41.039 41.039 0 0 1-41.039 41.039" fill="#fae4ef"/><path data-name="Path 10238" d="M296.621 299.859H64.309A41.039 41.039 0 0 1 23.27 258.82V59.02a41.039 41.039 0 0 1 41.039-41.039h232.312A41.039 41.039 0 0 1 337.66 59.02v199.8a41.039 41.039 0 0 1-41.039 41.039" fill="#fae4ef"/><path data-name="Path 10239" d="M296.417 299.701H64.103a41.039 41.039 0 0 1-41.039-41.039v-199.8a41.039 41.039 0 0 1 41.039-41.039h232.314a41.039 41.039 0 0 1 41.039 41.039v199.8a41.039 41.039 0 0 1-41.039 41.039" fill="#fae4ef"/><path data-name="Path 10240" d="M296.212 299.544H63.896a41.039 41.039 0 0 1-41.039-41.039v-199.8a41.039 41.039 0 0 1 41.039-41.039h232.316a41.039 41.039 0 0 1 41.039 41.039v199.8a41.039 41.039 0 0 1-41.039 41.039" fill="#fae4ef"/><path data-name="Path 10241" d="M296.008 299.386H63.696a41.039 41.039 0 0 1-41.039-41.039v-199.8a41.039 41.039 0 0 1 41.039-41.039h232.312a41.039 41.039 0 0 1 41.039 41.039v199.8a41.039 41.039 0 0 1-41.039 41.039" fill="#fae5ef"/><path data-name="Path 10242" d="M295.805 299.228H63.493a41.039 41.039 0 0 1-41.039-41.039v-199.8A41.039 41.039 0 0 1 63.493 17.35h232.312a41.039 41.039 0 0 1 41.039 41.039v199.8a41.039 41.039 0 0 1-41.039 41.039" fill="#fae5ef"/><path data-name="Path 10243" d="M295.6 299.07H63.288a41.039 41.039 0 0 1-41.039-41.039v-199.8a41.039 41.039 0 0 1 41.039-41.039H295.6a41.039 41.039 0 0 1 41.039 41.039v199.8A41.039 41.039 0 0 1 295.6 299.07" fill="#fae5ef"/><path data-name="Path 10244" d="M295.396 298.913H63.084a41.039 41.039 0 0 1-41.039-41.039v-199.8a41.039 41.039 0 0 1 41.039-41.039h232.312a41.039 41.039 0 0 1 41.039 41.039v199.8a41.039 41.039 0 0 1-41.039 41.039" fill="#fae5f0"/><path data-name="Path 10245" d="M295.192 298.755H62.88a41.039 41.039 0 0 1-41.039-41.039v-199.8A41.039 41.039 0 0 1 62.88 16.877h232.312a41.039 41.039 0 0 1 41.039 41.039v199.8a41.039 41.039 0 0 1-41.039 41.039" fill="#fae5f0"/><path data-name="Path 10246" d="M294.988 298.597H62.676a41.039 41.039 0 0 1-41.039-41.039v-199.8a41.039 41.039 0 0 1 41.039-41.039h232.312a41.039 41.039 0 0 1 41.039 41.039v199.8a41.039 41.039 0 0 1-41.039 41.039" fill="#fae6f0"/><path data-name="Path 10247" d="M294.784 298.44H62.472a41.039 41.039 0 0 1-41.039-41.039v-199.8a41.039 41.039 0 0 1 41.039-41.039h232.312a41.039 41.039 0 0 1 41.039 41.039v199.8a41.039 41.039 0 0 1-41.039 41.039" fill="#fae6f0"/><path data-name="Path 10248" d="M294.58 298.282H62.268a41.039 41.039 0 0 1-41.039-41.039v-199.8a41.039 41.039 0 0 1 41.039-41.039H294.58a41.039 41.039 0 0 1 41.039 41.039v199.8a41.039 41.039 0 0 1-41.039 41.039" fill="#fae6f0"/><path data-name="Path 10249" d="M294.375 298.124H62.063a41.039 41.039 0 0 1-41.039-41.039v-199.8a41.039 41.039 0 0 1 41.039-41.039h232.312a41.039 41.039 0 0 1 41.039 41.039v199.8a41.039 41.039 0 0 1-41.039 41.039" fill="#fae6f0"/><path data-name="Path 10250" d="M294.171 297.966H61.859a41.039 41.039 0 0 1-41.039-41.04v-199.8a41.039 41.039 0 0 1 41.039-41.038h232.312a41.039 41.039 0 0 1 41.039 41.038v199.8a41.039 41.039 0 0 1-41.039 41.039" fill="#fae6f0"/><path data-name="Path 10251" d="M293.967 297.809H61.655a41.039 41.039 0 0 1-41.039-41.039V56.97a41.039 41.039 0 0 1 41.039-41.039h232.312a41.039 41.039 0 0 1 41.039 41.039v199.8a41.039 41.039 0 0 1-41.039 41.039" fill="#fae7f1"/><path data-name="Path 10252" d="M293.763 297.651H61.451a41.039 41.039 0 0 1-41.039-41.039v-199.8a41.039 41.039 0 0 1 41.039-41.039h232.312a41.039 41.039 0 0 1 41.039 41.039v199.8a41.039 41.039 0 0 1-41.039 41.039" fill="#fae7f1"/><path data-name="Path 10253" d="M293.559 297.493H61.247a41.039 41.039 0 0 1-41.039-41.039v-199.8a41.039 41.039 0 0 1 41.039-41.039h232.312a41.039 41.039 0 0 1 41.039 41.039v199.8a41.039 41.039 0 0 1-41.039 41.039" fill="#fae7f1"/><path data-name="Path 10254" d="M293.355 297.335H61.043a41.039 41.039 0 0 1-41.039-41.039v-199.8a41.039 41.039 0 0 1 41.039-41.039h232.312a41.039 41.039 0 0 1 41.039 41.039v199.8a41.039 41.039 0 0 1-41.039 41.039" fill="#fae7f1"/><path data-name="Path 10255" d="M293.151 297.175H60.839a41.039 41.039 0 0 1-41.036-41.036v-199.8A41.039 41.039 0 0 1 60.839 15.3h232.312a41.039 41.039 0 0 1 41.039 41.039v199.8a41.039 41.039 0 0 1-41.039 41.036" fill="#fbe7f1"/><path data-name="Path 10256" d="M292.947 297.025H60.635a41.039 41.039 0 0 1-41.038-41.044v-199.8a41.039 41.039 0 0 1 41.038-41.039h232.312a41.039 41.039 0 0 1 41.039 41.039v199.8a41.039 41.039 0 0 1-41.039 41.044" fill="#fbe8f1"/><path data-name="Path 10257" d="M292.743 296.862H60.431a41.039 41.039 0 0 1-41.04-41.039v-199.8a41.039 41.039 0 0 1 41.04-41.039h232.312a41.039 41.039 0 0 1 41.039 41.039v199.8a41.039 41.039 0 0 1-41.039 41.039" fill="#fbe8f1"/><path data-name="Path 10258" d="M292.538 296.704H60.226a41.039 41.039 0 0 1-41.042-41.039v-199.8a41.039 41.039 0 0 1 41.042-41.041h232.312a41.039 41.039 0 0 1 41.039 41.039v199.8a41.039 41.039 0 0 1-41.039 41.039" fill="#fbe8f1"/><path data-name="Path 10259" d="M292.334 296.547H60.022a41.039 41.039 0 0 1-41.039-41.039v-199.8a41.039 41.039 0 0 1 41.039-41.039h232.312a41.039 41.039 0 0 1 41.039 41.039v199.8a41.039 41.039 0 0 1-41.039 41.039" fill="#fbe8f2"/><path data-name="Path 10260" d="M292.13 296.389H59.818a41.039 41.039 0 0 1-41.039-41.039V55.55a41.039 41.039 0 0 1 41.039-41.039H292.13a41.039 41.039 0 0 1 41.042 41.039v199.8a41.039 41.039 0 0 1-41.039 41.039" fill="#fbe8f2"/><path data-name="Path 10261" d="M291.926 296.231H59.614a41.039 41.039 0 0 1-41.039-41.039v-199.8a41.039 41.039 0 0 1 41.039-41.039h232.312a41.039 41.039 0 0 1 41.04 41.039v199.8a41.039 41.039 0 0 1-41.039 41.039" fill="#fbe9f2"/><path data-name="Path 10262" d="M291.722 296.074H59.41a41.039 41.039 0 0 1-41.039-41.039v-199.8A41.039 41.039 0 0 1 59.41 14.196h232.312a41.039 41.039 0 0 1 41.037 41.039v199.8a41.039 41.039 0 0 1-41.039 41.039" fill="#fbe9f2"/><path data-name="Path 10263" d="M291.518 295.916H59.206a41.039 41.039 0 0 1-41.039-41.043v-199.8a41.039 41.039 0 0 1 41.039-41.035h232.312a41.039 41.039 0 0 1 41.035 41.035v199.8a41.039 41.039 0 0 1-41.039 41.039" fill="#fbe9f2"/><path data-name="Path 10264" d="M291.314 295.759H59.002a41.039 41.039 0 0 1-41.039-41.036v-199.8a41.039 41.039 0 0 1 41.039-41.042h232.312a41.039 41.039 0 0 1 41.039 41.042v199.8a41.039 41.039 0 0 1-41.039 41.039" fill="#fbe9f2"/><path data-name="Path 10265" d="M291.11 295.601H58.798a41.039 41.039 0 0 1-41.039-41.039v-199.8a41.039 41.039 0 0 1 41.039-41.039H291.11a41.039 41.039 0 0 1 41.039 41.039v199.8a41.039 41.039 0 0 1-41.039 41.039" fill="#fbe9f2"/><path data-name="Path 10266" d="M290.906 295.443H58.594a41.039 41.039 0 0 1-41.039-41.039v-199.8a41.039 41.039 0 0 1 41.039-41.039h232.312a41.039 41.039 0 0 1 41.039 41.039v199.8a41.039 41.039 0 0 1-41.039 41.039" fill="#fbe9f2"/><path data-name="Path 10267" d="M290.701 295.285H58.389a41.039 41.039 0 0 1-41.039-41.039v-199.8a41.039 41.039 0 0 1 41.039-41.039h232.312a41.039 41.039 0 0 1 41.039 41.039v199.8a41.039 41.039 0 0 1-41.039 41.039" fill="#fbeaf2"/><path data-name="Path 10268" d="M290.497 295.128H58.185a41.039 41.039 0 0 1-41.039-41.039v-199.8A41.039 41.039 0 0 1 58.185 13.25h232.312a41.039 41.039 0 0 1 41.039 41.039v199.8a41.039 41.039 0 0 1-41.039 41.039" fill="#fbeaf3"/><path data-name="Path 10269" d="M290.293 294.972H57.981a41.039 41.039 0 0 1-41.039-41.039V54.131a41.039 41.039 0 0 1 41.039-41.039h232.312a41.039 41.039 0 0 1 41.039 41.039v199.8a41.039 41.039 0 0 1-41.039 41.041" fill="#fbeaf3"/><path data-name="Path 10270" d="M290.089 294.812H57.777a41.039 41.039 0 0 1-41.039-41.039v-199.8a41.039 41.039 0 0 1 41.039-41.039h232.312a41.039 41.039 0 0 1 41.039 41.039v199.8a41.039 41.039 0 0 1-41.039 41.039" fill="#fbeaf3"/><path data-name="Path 10271" d="M289.885 294.654H57.573a41.039 41.039 0 0 1-41.039-41.039v-199.8a41.039 41.039 0 0 1 41.039-41.044h232.312a41.039 41.039 0 0 1 41.039 41.044v199.8a41.039 41.039 0 0 1-41.039 41.039" fill="#fbebf3"/><path data-name="Path 10272" d="M289.681 294.497H57.369a41.039 41.039 0 0 1-41.039-41.039v-199.8a41.039 41.039 0 0 1 41.039-41.037h232.312A41.039 41.039 0 0 1 330.72 53.66v199.8a41.039 41.039 0 0 1-41.039 41.039" fill="#fbebf3"/><path data-name="Path 10273" d="M289.477 294.339H57.165A41.039 41.039 0 0 1 16.126 253.3V53.5a41.039 41.039 0 0 1 41.039-41.039h232.312A41.039 41.039 0 0 1 330.516 53.5v199.8a41.039 41.039 0 0 1-41.039 41.039" fill="#fbebf3"/><path data-name="Path 10274" d="M289.273 294.181H56.961a41.039 41.039 0 0 1-41.039-41.039v-199.8a41.039 41.039 0 0 1 41.039-41.039h232.312a41.039 41.039 0 0 1 41.039 41.039v199.8a41.039 41.039 0 0 1-41.039 41.039" fill="#fbebf3"/><path data-name="Path 10275" d="M289.069 294.023H56.757a41.039 41.039 0 0 1-41.039-41.039v-199.8a41.039 41.039 0 0 1 41.039-41.039h232.312a41.039 41.039 0 0 1 41.039 41.039v199.8a41.039 41.039 0 0 1-41.039 41.039" fill="#fbebf3"/><path data-name="Path 10276" d="M288.864 293.866H56.552a41.039 41.039 0 0 1-41.039-41.039v-199.8a41.039 41.039 0 0 1 41.039-41.039h232.312a41.039 41.039 0 0 1 41.039 41.039v199.8a41.039 41.039 0 0 1-41.039 41.039" fill="#fbecf4"/><path data-name="Path 10277" d="M288.66 293.708H56.348a41.039 41.039 0 0 1-41.039-41.039v-199.8A41.039 41.039 0 0 1 56.348 11.83H288.66a41.039 41.039 0 0 1 41.039 41.039v199.8a41.039 41.039 0 0 1-41.039 41.039" fill="#fbecf4"/><path data-name="Path 10278" d="M288.46 293.55H56.144a41.039 41.039 0 0 1-41.039-41.039v-199.8a41.039 41.039 0 0 1 41.039-41.039H288.46a41.039 41.039 0 0 1 41.039 41.039v199.8a41.039 41.039 0 0 1-41.039 41.039" fill="#fbecf4"/><path data-name="Path 10279" d="M288.254 293.393H55.94a41.039 41.039 0 0 1-41.039-41.039v-199.8A41.039 41.039 0 0 1 55.94 11.515h232.314a41.039 41.039 0 0 1 41.039 41.039v199.8a41.039 41.039 0 0 1-41.039 41.039" fill="#fbecf4"/><path data-name="Path 10280" d="M288.048 293.235H55.736a41.039 41.039 0 0 1-41.039-41.039v-199.8a41.039 41.039 0 0 1 41.039-41.039h232.312a41.039 41.039 0 0 1 41.039 41.039v199.8a41.039 41.039 0 0 1-41.039 41.039" fill="#fbecf4"/><path data-name="Path 10281" d="M287.842 293.077H55.532a41.039 41.039 0 0 1-41.039-41.039v-199.8a41.039 41.039 0 0 1 41.039-41.039h232.31a41.039 41.039 0 0 1 41.041 41.039v199.8a41.039 41.039 0 0 1-41.041 41.039" fill="#fbedf4"/><path data-name="Path 10282" d="M287.635 292.918H55.327a41.039 41.039 0 0 1-41.039-41.039V52.08a41.039 41.039 0 0 1 41.039-41.039h232.308a41.039 41.039 0 0 1 41.039 41.039v199.8a41.039 41.039 0 0 1-41.039 41.038" fill="#fcedf4"/><path data-name="Path 10283" d="M287.436 292.762H55.129a41.039 41.039 0 0 1-41.039-41.039v-199.8a41.039 41.039 0 0 1 41.039-41.039h232.307a41.039 41.039 0 0 1 41.039 41.039v199.8a41.039 41.039 0 0 1-41.039 41.039" fill="#fcedf4"/><path data-name="Path 10284" d="M287.232 292.604H54.923a41.039 41.039 0 0 1-41.039-41.039v-199.8a41.039 41.039 0 0 1 41.039-41.039h232.309a41.039 41.039 0 0 1 41.039 41.039v199.8a41.039 41.039 0 0 1-41.039 41.039" fill="#fcedf4"/><path data-name="Path 10285" d="M287.027 292.446H54.716a41.039 41.039 0 0 1-41.04-41.039v-199.8a41.039 41.039 0 0 1 41.04-41.04h232.311a41.039 41.039 0 0 1 41.039 41.04v199.8a41.039 41.039 0 0 1-41.039 41.039" fill="#fcedf5"/><path data-name="Path 10286" d="M286.823 292.288H54.51a41.039 41.039 0 0 1-41.039-41.039v-199.8A41.039 41.039 0 0 1 54.51 10.41h232.313a41.039 41.039 0 0 1 41.039 41.039v199.8a41.039 41.039 0 0 1-41.039 41.039" fill="#fceef5"/><path data-name="Path 10287" d="M286.619 292.131H54.304a41.039 41.039 0 0 1-41.039-41.039v-199.8a41.039 41.039 0 0 1 41.039-41.039h232.315a41.039 41.039 0 0 1 41.039 41.039v199.8a41.039 41.039 0 0 1-41.039 41.039" fill="#fceef5"/><path data-name="Path 10288" d="M286.415 291.973H54.103a41.039 41.039 0 0 1-41.039-41.039v-199.8a41.039 41.039 0 0 1 41.039-41.039h232.312a41.039 41.039 0 0 1 41.039 41.039v199.8a41.039 41.039 0 0 1-41.039 41.039" fill="#fceef5"/><path data-name="Path 10289" d="M286.211 291.815H53.899a41.039 41.039 0 0 1-41.039-41.039v-199.8A41.039 41.039 0 0 1 53.899 9.937h232.312a41.039 41.039 0 0 1 41.039 41.039v199.8a41.039 41.039 0 0 1-41.039 41.039" fill="#fceef5"/><path data-name="Path 10290" d="M286.006 291.657H53.694a41.039 41.039 0 0 1-41.039-41.041v-199.8A41.039 41.039 0 0 1 53.694 9.779h232.312a41.039 41.039 0 0 1 41.039 41.037v199.8a41.039 41.039 0 0 1-41.039 41.039" fill="#fceef5"/><path data-name="Path 10291" d="M285.802 291.5H53.49a41.039 41.039 0 0 1-41.039-41.039V50.666A41.039 41.039 0 0 1 53.49 9.622h232.312a41.039 41.039 0 0 1 41.039 41.044v199.8a41.039 41.039 0 0 1-41.039 41.039" fill="#fceff5"/><path data-name="Path 10292" d="M285.598 291.342H53.286a41.039 41.039 0 0 1-41.039-41.039v-199.8A41.039 41.039 0 0 1 53.286 9.464h232.312a41.039 41.039 0 0 1 41.039 41.039v199.8a41.039 41.039 0 0 1-41.039 41.039" fill="#fceff5"/><path data-name="Path 10293" d="M285.393 291.184H53.082a41.039 41.039 0 0 1-41.039-41.039v-199.8A41.039 41.039 0 0 1 53.082 9.306h232.311a41.039 41.039 0 0 1 41.039 41.039v199.8a41.039 41.039 0 0 1-41.039 41.039" fill="#fceff6"/><path data-name="Path 10294" d="M285.19 291.027H52.878a41.039 41.039 0 0 1-41.039-41.039v-199.8A41.039 41.039 0 0 1 52.878 9.149H285.19a41.039 41.039 0 0 1 41.039 41.039v199.8a41.039 41.039 0 0 1-41.039 41.039" fill="#fceff6"/><path data-name="Path 10295" d="M284.986 290.865H52.674a41.039 41.039 0 0 1-41.039-41.039V50.03A41.039 41.039 0 0 1 52.674 8.991h232.312a41.039 41.039 0 0 1 41.039 41.039v199.8a41.039 41.039 0 0 1-41.039 41.035" fill="#fdf0f6"/><path data-name="Path 10296" d="M284.782 290.714H52.47a41.039 41.039 0 0 1-41.039-41.039V49.872A41.039 41.039 0 0 1 52.47 8.833h232.312a41.039 41.039 0 0 1 41.039 41.039v199.8a41.039 41.039 0 0 1-41.039 41.042" fill="#fdf0f6"/><path data-name="Path 10297" d="M284.578 290.553H52.266a41.039 41.039 0 0 1-41.039-41.039v-199.8A41.039 41.039 0 0 1 52.266 8.675h232.312a41.039 41.039 0 0 1 41.039 41.039v199.8a41.039 41.039 0 0 1-41.039 41.039" fill="#fdf0f6"/><path data-name="Path 10298" d="M284.374 290.396H52.062a41.039 41.039 0 0 1-41.039-41.039v-199.8A41.039 41.039 0 0 1 52.062 8.514h232.312a41.039 41.039 0 0 1 41.039 41.039v199.8a41.039 41.039 0 0 1-41.039 41.039" fill="#fdf0f6"/><path data-name="Path 10299" d="M284.169 290.238H51.857a41.039 41.039 0 0 1-41.039-41.039v-199.8A41.039 41.039 0 0 1 51.857 8.364h232.312a41.039 41.039 0 0 1 41.039 41.039v199.8a41.039 41.039 0 0 1-41.039 41.039" fill="#fdf1f6"/><path data-name="Path 10300" d="M283.965 290.08H51.653a41.039 41.039 0 0 1-41.039-41.039v-199.8A41.039 41.039 0 0 1 51.653 8.202h232.312a41.039 41.039 0 0 1 41.039 41.039v199.8a41.039 41.039 0 0 1-41.039 41.039" fill="#fdf1f7"/><path data-name="Path 10301" d="M283.761 289.922H51.449a41.039 41.039 0 0 1-41.039-41.039v-199.8A41.039 41.039 0 0 1 51.449 8.044h232.312A41.039 41.039 0 0 1 324.8 49.083v199.8a41.039 41.039 0 0 1-41.039 41.039" fill="#fdf1f7"/><path data-name="Path 10302" d="M283.557 289.765H51.245a41.039 41.039 0 0 1-41.034-41.039v-199.8A41.039 41.039 0 0 1 51.245 7.887h232.312a41.039 41.039 0 0 1 41.039 41.039v199.8a41.039 41.039 0 0 1-41.039 41.039" fill="#fdf1f7"/><path data-name="Path 10303" d="M283.353 289.607H51.041a41.039 41.039 0 0 1-41.036-41.044V48.768A41.039 41.039 0 0 1 51.041 7.729h232.312a41.039 41.039 0 0 1 41.039 41.039v199.795a41.039 41.039 0 0 1-41.039 41.039" fill="#fdf1f7"/><path data-name="Path 10304" d="M283.149 289.449H50.837a41.039 41.039 0 0 1-41.039-41.037v-199.8A41.039 41.039 0 0 1 50.837 7.571h232.312a41.039 41.039 0 0 1 41.039 41.041v199.8a41.039 41.039 0 0 1-41.039 41.039" fill="#fdf2f7"/><path data-name="Path 10305" d="M282.945 289.291H50.633a41.039 41.039 0 0 1-41.041-41.039v-199.8A41.039 41.039 0 0 1 50.633 7.413h232.312a41.039 41.039 0 0 1 41.039 41.039v199.8a41.039 41.039 0 0 1-41.039 41.039" fill="#fdf2f7"/><path data-name="Path 10306" d="M282.741 289.134H50.429a41.039 41.039 0 0 1-41.043-41.039v-199.8A41.039 41.039 0 0 1 50.429 7.256h232.312a41.039 41.039 0 0 1 41.039 41.039v199.8a41.039 41.039 0 0 1-41.039 41.039" fill="#fdf2f7"/><path data-name="Path 10307" d="M282.537 288.976H50.225a41.039 41.039 0 0 1-41.039-41.039v-199.8A41.039 41.039 0 0 1 50.225 7.098h232.312a41.039 41.039 0 0 1 41.043 41.039v199.8a41.039 41.039 0 0 1-41.039 41.039" fill="#fdf2f7"/><path data-name="Path 10308" d="M282.332 288.818H50.02a41.039 41.039 0 0 1-41.039-41.039v-199.8A41.039 41.039 0 0 1 50.02 6.94h232.312a41.039 41.039 0 0 1 41.041 41.039v199.8a41.039 41.039 0 0 1-41.039 41.039" fill="#fdf2f7"/><path data-name="Path 10309" d="M282.128 288.661H49.816a41.039 41.039 0 0 1-41.039-41.039v-199.8A41.039 41.039 0 0 1 49.816 6.783h232.312a41.039 41.039 0 0 1 41.039 41.039v199.8a41.039 41.039 0 0 1-41.039 41.039" fill="#fdf3f8"/><path data-name="Path 10310" d="M281.924 288.503H49.612a41.039 41.039 0 0 1-41.039-41.039v-199.8A41.039 41.039 0 0 1 49.612 6.625h232.312a41.039 41.039 0 0 1 41.037 41.039v199.8a41.039 41.039 0 0 1-41.039 41.039" fill="#fdf3f8"/><path data-name="Path 10311" d="M281.72 288.345H49.408a41.039 41.039 0 0 1-41.039-41.039v-199.8A41.039 41.039 0 0 1 49.408 6.467H281.72a41.039 41.039 0 0 1 41.035 41.039v199.8a41.039 41.039 0 0 1-41.039 41.039" fill="#fdf3f8"/><path data-name="Path 10312" d="M281.516 288.187H49.204a41.039 41.039 0 0 1-41.039-41.039v-199.8A41.039 41.039 0 0 1 49.204 6.31h232.312a41.039 41.039 0 0 1 41.039 41.039v199.8a41.039 41.039 0 0 1-41.039 41.039" fill="#fdf3f8"/><path data-name="Path 10313" d="M281.312 288.03H49a41.039 41.039 0 0 1-41.039-41.039v-199.8A41.039 41.039 0 0 1 49 6.152h232.312a41.039 41.039 0 0 1 41.039 41.039v199.8a41.039 41.039 0 0 1-41.039 41.039" fill="#fdf4f8"/><path data-name="Path 10314" d="M281.108 287.872H48.796a41.039 41.039 0 0 1-41.039-41.039v-199.8A41.039 41.039 0 0 1 48.796 5.994h232.312a41.039 41.039 0 0 1 41.039 41.039v199.8a41.039 41.039 0 0 1-41.039 41.039" fill="#fdf4f8"/><path data-name="Path 10315" d="M280.904 287.714H48.592a41.039 41.039 0 0 1-41.039-41.039v-199.8A41.039 41.039 0 0 1 48.592 5.836h232.312a41.039 41.039 0 0 1 41.039 41.039v199.8a41.039 41.039 0 0 1-41.039 41.039" fill="#fdf4f8"/><path data-name="Path 10316" d="M280.7 287.556H48.388a41.039 41.039 0 0 1-41.039-41.039v-199.8A41.039 41.039 0 0 1 48.388 5.678H280.7a41.039 41.039 0 0 1 41.039 41.039v199.8a41.039 41.039 0 0 1-41.039 41.039" fill="#fdf4f9"/><path data-name="Path 10317" d="M280.495 287.399H48.183a41.039 41.039 0 0 1-41.039-41.04v-199.8A41.039 41.039 0 0 1 48.183 5.521h232.312a41.039 41.039 0 0 1 41.039 41.038v199.8a41.039 41.039 0 0 1-41.039 41.039" fill="#fdf5f9"/><path data-name="Path 10318" d="M280.291 287.241H47.979A41.039 41.039 0 0 1 6.94 246.202v-199.8A41.039 41.039 0 0 1 47.979 5.363h232.312a41.039 41.039 0 0 1 41.039 41.039v199.8a41.039 41.039 0 0 1-41.039 41.039" fill="#fdf5f9"/><path data-name="Path 10319" d="M280.087 287.083H47.775a41.039 41.039 0 0 1-41.039-41.039v-199.8A41.039 41.039 0 0 1 47.775 5.205h232.312a41.039 41.039 0 0 1 41.039 41.039v199.8a41.039 41.039 0 0 1-41.039 41.039" fill="#fdf5f9"/><path data-name="Path 10320" d="M279.883 286.925H47.571a41.039 41.039 0 0 1-41.039-41.039v-199.8A41.039 41.039 0 0 1 47.571 5.047h232.312a41.039 41.039 0 0 1 41.039 41.039v199.8a41.039 41.039 0 0 1-41.039 41.039" fill="#fdf5f9"/><path data-name="Path 10321" d="M279.679 286.768H47.367a41.039 41.039 0 0 1-41.039-41.039v-199.8A41.039 41.039 0 0 1 47.367 4.89h232.312a41.039 41.039 0 0 1 41.039 41.039v199.8a41.039 41.039 0 0 1-41.039 41.039" fill="#fdf5f9"/><path data-name="Path 10322" d="M279.475 286.608H47.163a41.039 41.039 0 0 1-41.039-41.039V45.771A41.039 41.039 0 0 1 47.163 4.732h232.312a41.039 41.039 0 0 1 41.039 41.039v199.8a41.039 41.039 0 0 1-41.039 41.037" fill="#fef6f9"/><path data-name="Path 10323" d="M279.27 286.457H46.958a41.039 41.039 0 0 1-41.039-41.039V45.613A41.039 41.039 0 0 1 46.958 4.574H279.27a41.039 41.039 0 0 1 41.039 41.039v199.8a41.039 41.039 0 0 1-41.039 41.044" fill="#fef6fa"/><path data-name="Path 10324" d="M279.067 286.295H46.755a41.039 41.039 0 0 1-41.039-41.039v-199.8A41.039 41.039 0 0 1 46.755 4.417h232.312a41.039 41.039 0 0 1 41.039 41.039v199.8a41.039 41.039 0 0 1-41.039 41.039" fill="#fef6fa"/><path data-name="Path 10325" d="M278.863 286.137H46.551a41.039 41.039 0 0 1-41.039-41.039v-199.8A41.039 41.039 0 0 1 46.551 4.257h232.312a41.039 41.039 0 0 1 41.039 41.039v199.8a41.039 41.039 0 0 1-41.039 41.039" fill="#fef6fa"/><path data-name="Path 10326" d="M278.661 285.979H46.346A41.039 41.039 0 0 1 5.307 244.94V45.14A41.039 41.039 0 0 1 46.346 4.101h232.315A41.039 41.039 0 0 1 319.7 45.14v199.8a41.039 41.039 0 0 1-41.039 41.039" fill="#fef6fa"/><path data-name="Path 10327" d="M278.455 285.821H46.142a41.039 41.039 0 0 1-41.039-41.039v-199.8A41.039 41.039 0 0 1 46.142 3.943h232.313a41.039 41.039 0 0 1 41.039 41.039v199.8a41.039 41.039 0 0 1-41.039 41.039" fill="#fef7fa"/><path data-name="Path 10328" d="M278.249 285.664H45.938a41.039 41.039 0 0 1-41.039-41.039v-199.8A41.039 41.039 0 0 1 45.938 3.786h232.311a41.039 41.039 0 0 1 41.04 41.039v199.8a41.039 41.039 0 0 1-41.04 41.039" fill="#fef7fa"/><path data-name="Path 10329" d="M278.043 285.506H45.734a41.039 41.039 0 0 1-41.039-41.039v-199.8A41.039 41.039 0 0 1 45.734 3.628h232.309a41.039 41.039 0 0 1 41.039 41.039v199.8a41.039 41.039 0 0 1-41.039 41.039" fill="#fef7fa"/><path data-name="Path 10330" d="M277.837 285.348H45.53a41.039 41.039 0 0 1-41.039-41.043v-199.8A41.039 41.039 0 0 1 45.53 3.47h232.307a41.039 41.039 0 0 1 41.044 41.035v199.8a41.039 41.039 0 0 1-41.044 41.043" fill="#fef8fb"/><path data-name="Path 10331" d="M277.638 285.19H45.331a41.039 41.039 0 0 1-41.044-41.035v-199.8A41.039 41.039 0 0 1 45.331 3.312h232.307a41.039 41.039 0 0 1 41.039 41.043v199.8a41.039 41.039 0 0 1-41.039 41.039" fill="#fef8fb"/><path data-name="Path 10332" d="M277.433 285.033H45.124a41.039 41.039 0 0 1-41.042-41.039v-199.8A41.039 41.039 0 0 1 45.124 3.155h232.309a41.039 41.039 0 0 1 41.039 41.039v199.8a41.039 41.039 0 0 1-41.039 41.039" fill="#fef8fb"/><path data-name="Path 10333" d="M277.229 284.875H44.918a41.039 41.039 0 0 1-41.04-41.039v-199.8a41.039 41.039 0 0 1 41.04-41.039h232.311a41.039 41.039 0 0 1 41.039 41.039v199.8a41.039 41.039 0 0 1-41.039 41.039" fill="#fef8fb"/><path data-name="Path 10334" d="M277.026 284.717H44.712a41.039 41.039 0 0 1-41.037-41.039v-199.8A41.039 41.039 0 0 1 44.712 2.839h232.314a41.039 41.039 0 0 1 41.039 41.039v199.8a41.039 41.039 0 0 1-41.039 41.039" fill="#fef9fb"/><path data-name="Path 10335" d="M276.821 284.559H44.505A41.039 41.039 0 0 1 3.47 243.52V43.72A41.039 41.039 0 0 1 44.505 2.681h232.316A41.039 41.039 0 0 1 317.86 43.72v199.8a41.039 41.039 0 0 1-41.039 41.039" fill="#fef9fb"/><path data-name="Path 10336" d="M276.617 284.404H44.305a41.039 41.039 0 0 1-41.039-41.041v-199.8A41.039 41.039 0 0 1 44.305 2.524h232.312a41.039 41.039 0 0 1 41.039 41.039v199.8a41.039 41.039 0 0 1-41.039 41.041" fill="#fef9fc"/><path data-name="Path 10337" d="M276.413 284.244H44.101a41.039 41.039 0 0 1-41.039-41.039v-199.8A41.039 41.039 0 0 1 44.101 2.366h232.312a41.039 41.039 0 0 1 41.039 41.039v199.8a41.039 41.039 0 0 1-41.039 41.039" fill="#fefafc"/><path data-name="Path 10338" d="M276.209 284.086H43.897a41.039 41.039 0 0 1-41.039-41.039v-199.8A41.039 41.039 0 0 1 43.897 2.203h232.312a41.039 41.039 0 0 1 41.039 41.039v199.8a41.039 41.039 0 0 1-41.039 41.039" fill="#fefafc"/><path data-name="Path 10339" d="M276.005 283.928H43.693a41.039 41.039 0 0 1-41.039-41.039v-199.8A41.039 41.039 0 0 1 43.693 2.053h232.312a41.039 41.039 0 0 1 41.039 41.039v199.8a41.039 41.039 0 0 1-41.039 41.039" fill="#fefafc"/><path data-name="Path 10340" d="M275.801 283.771H43.489A41.039 41.039 0 0 1 2.45 242.732v-199.8A41.039 41.039 0 0 1 43.489 1.893h232.312a41.039 41.039 0 0 1 41.039 41.039v199.8a41.039 41.039 0 0 1-41.039 41.039" fill="#fefafc"/><path data-name="Path 10341" d="M275.596 283.613H43.284a41.039 41.039 0 0 1-41.039-41.039v-199.8A41.039 41.039 0 0 1 43.284 1.735h232.312a41.039 41.039 0 0 1 41.039 41.039v199.8a41.039 41.039 0 0 1-41.039 41.039" fill="#fefbfd"/><path data-name="Path 10342" d="M275.392 283.455H43.08a41.039 41.039 0 0 1-41.039-41.039v-199.8A41.039 41.039 0 0 1 43.08 1.577h232.312a41.039 41.039 0 0 1 41.039 41.039v199.8a41.039 41.039 0 0 1-41.039 41.039" fill="#fefbfd"/><path data-name="Path 10343" d="M275.188 283.298H42.876a41.039 41.039 0 0 1-41.039-41.039v-199.8A41.039 41.039 0 0 1 42.876 1.42h232.312a41.039 41.039 0 0 1 41.039 41.039v199.8a41.039 41.039 0 0 1-41.039 41.039" fill="#fefcfd"/><path data-name="Path 10344" d="M274.984 283.14H42.672a41.039 41.039 0 0 1-41.039-41.038v-199.8a41.039 41.039 0 0 1 41.039-41.04h232.312a41.039 41.039 0 0 1 41.039 41.04v199.8a41.039 41.039 0 0 1-41.039 41.039" fill="#fefcfd"/><path data-name="Path 10345" d="M274.78 282.982H42.468a41.039 41.039 0 0 1-41.039-41.039v-199.8A41.039 41.039 0 0 1 42.468 1.104H274.78a41.039 41.039 0 0 1 41.039 41.039v199.8a41.039 41.039 0 0 1-41.039 41.039" fill="#fffcfd"/><path data-name="Path 10346" d="M274.576 282.824H42.264a41.039 41.039 0 0 1-41.039-41.039v-199.8A41.039 41.039 0 0 1 42.264.946h232.312a41.039 41.039 0 0 1 41.039 41.039v199.8a41.039 41.039 0 0 1-41.039 41.039" fill="#fffdfe"/><path data-name="Path 10347" d="M274.372 282.667H42.06a41.039 41.039 0 0 1-41.039-41.039v-199.8A41.039 41.039 0 0 1 42.06.789h232.312a41.039 41.039 0 0 1 41.039 41.039v199.8a41.039 41.039 0 0 1-41.039 41.039" fill="#fffdfe"/><path data-name="Path 10348" d="M274.168 282.509H41.856A41.039 41.039 0 0 1 .817 241.47V41.67A41.039 41.039 0 0 1 41.856.631h232.312a41.039 41.039 0 0 1 41.039 41.039v199.8a41.039 41.039 0 0 1-41.039 41.039" fill="#fffefe"/><path data-name="Path 10349" d="M273.964 282.35H41.652A41.039 41.039 0 0 1 .613 241.312v-199.8A41.039 41.039 0 0 1 41.652.473h232.312a41.039 41.039 0 0 1 41.039 41.039v199.8a41.039 41.039 0 0 1-41.039 41.038" fill="#fffefe"/><path data-name="Path 10350" d="M273.759 282.193H41.447A41.039 41.039 0 0 1 .412 241.154v-199.8A41.039 41.039 0 0 1 41.447.315h232.312a41.039 41.039 0 0 1 41.039 41.039v199.8a41.039 41.039 0 0 1-41.039 41.039" fill="#fffefe"/><path data-name="Path 10351" d="M273.555 282.036H41.243A41.039 41.039 0 0 1 .206 240.997v-199.8A41.039 41.039 0 0 1 41.243.158h232.312a41.039 41.039 0 0 1 41.039 41.039v199.8a41.039 41.039 0 0 1-41.039 41.039" fill="#fff"/><path data-name="Path 10352" d="M273.351 281.878H41.039A41.039 41.039 0 0 1 0 240.839v-199.8A41.039 41.039 0 0 1 41.039 0h232.312a41.039 41.039 0 0 1 41.039 41.039v199.8a41.039 41.039 0 0 1-41.039 41.039" fill="#fff"/><path data-name="Path 10353" d="M257.139 281.878H57.252A57.252 57.252 0 0 1 0 224.626V57.251A57.252 57.252 0 0 1 57.252 0h199.887a57.251 57.251 0 0 1 57.251 57.251v167.375a57.252 57.252 0 0 1-57.252 57.252" fill="#f5f6f6"/></g></g><g data-name="Group 21010" transform="translate(72.381 27.898)" clip-path="url(#b)" fill="#061b5c"><path data-name="Path 10354" d="M87.205 44.375A1.606 1.606 0 0 1 85.616 43c-2.3-15.488-3.741-16.926-19.229-19.228a1.606 1.606 0 0 1 0-3.178c15.488-2.3 16.925-3.741 19.229-19.229a1.606 1.606 0 0 1 3.178 0c2.3 15.488 3.741 16.926 19.229 19.229a1.606 1.606 0 0 1 0 3.178C92.535 26.072 91.097 27.513 88.794 43a1.606 1.606 0 0 1-1.589 1.37m-11.86-22.182c3.539.913 5.984 2.085 7.877 3.978s3.065 4.338 3.978 7.877c.913-3.539 2.085-5.984 3.978-7.877s4.338-3.065 7.877-3.978c-3.539-.913-5.984-2.085-7.877-3.978s-3.065-4.338-3.978-7.877c-.913 3.539-2.085 5.984-3.978 7.877s-4.339 3.065-7.877 3.978"/><path data-name="Path 10355" d="M134.929 52.813a1.606 1.606 0 0 1-1.589-1.37c-1.6-10.758-2.465-11.623-13.223-13.223a1.606 1.606 0 0 1 0-3.178c10.758-1.6 11.624-2.465 13.223-13.223a1.606 1.606 0 0 1 3.178 0c1.6 10.758 2.465 11.623 13.223 13.223a1.606 1.606 0 0 1 0 3.178c-10.758 1.6-11.623 2.465-13.223 13.223a1.606 1.606 0 0 1-1.589 1.37m-6.735-16.181a9.711 9.711 0 0 1 6.738 6.738 9.712 9.712 0 0 1 6.738-6.738 9.713 9.713 0 0 1-6.738-6.738 9.712 9.712 0 0 1-6.738 6.738"/><path data-name="Path 10356" d="M35.932 52.813a1.606 1.606 0 0 1-1.589-1.37c-1.6-10.758-2.465-11.623-13.223-13.223a1.606 1.606 0 0 1 0-3.178c10.758-1.6 11.623-2.465 13.223-13.223a1.606 1.606 0 0 1 3.178 0c1.6 10.758 2.465 11.623 13.223 13.223a1.606 1.606 0 0 1 0 3.178c-10.758 1.6-11.623 2.465-13.223 13.223a1.606 1.606 0 0 1-1.589 1.37m-6.738-16.181a9.711 9.711 0 0 1 6.738 6.738 9.712 9.712 0 0 1 6.738-6.738 9.713 9.713 0 0 1-6.738-6.738 9.712 9.712 0 0 1-6.738 6.738"/><path data-name="Path 10357" d="m90.027 202.168-89.3-82.6a2.263 2.263 0 1 1 3.072-3.323l86.1 79.644 79.586-79.583a2.263 2.263 0 0 1 3.2 3.2z"/><path data-name="Path 10358" d="M171.095 120.171a2.262 2.262 0 0 1-1.9-1.024l-29.308-44.8H37.258l-33.174 44.9a2.263 2.263 0 1 1-3.641-2.69l34.531-46.739h107.365l30.648 46.845a2.264 2.264 0 0 1-1.892 3.5"/><path data-name="Path 10359" d="M171.093 120.17H6.332a2.264 2.264 0 1 1 0-4.527h164.761a2.264 2.264 0 1 1 0 4.527"/><path data-name="Path 10360" d="M88.161 196.538a2.264 2.264 0 0 1-2.033-1.265l-38.032-77.284L66.84 72.528a2.263 2.263 0 0 1 4.185 1.726L53.06 117.828l37.13 75.45a2.265 2.265 0 0 1-2.029 3.263"/><path data-name="Path 10361" d="M90.129 197.176a2.265 2.265 0 0 1-2.053-3.214l35.194-76.107-18.517-44.906a2.263 2.263 0 1 1 4.185-1.726l19.271 46.736-36.025 77.9a2.264 2.264 0 0 1-2.056 1.314"/><path data-name="Path 10362" d="M88.712 190.977a2.263 2.263 0 0 1-2.263-2.263V72.087a2.264 2.264 0 1 1 4.527 0v116.627a2.263 2.263 0 0 1-2.263 2.263"/></g></g></svg>