<svg xmlns="http://www.w3.org/2000/svg" width="85.378" height="102.948"><g data-name="Group 20067"><path data-name="Path 6947" d="M63.839 102.949h-49.3a6 6 0 0 1-6-6v-77.96h61.3v77.958a6 6 0 0 1-6 6" fill="#7cc9c1"/><path data-name="Path 6949" d="M39.214 85.375h-.052a2.152 2.152 0 0 1-2.152-2.15V44.06a2.153 2.153 0 0 1 2.152-2.152h.052a2.151 2.151 0 0 1 2.15 2.152v39.162a2.15 2.15 0 0 1-2.15 2.15" fill="#1e243b"/><g data-name="Group 20066"><path data-name="Path 6948" d="M8.536 91.826v5.121a6 6 0 0 0 6 6h49.3a6 6 0 0 0 6-6v-5.121z" fill="#1e243b"/><path data-name="Path 6950" d="M25.78 85.375h-.052a2.152 2.152 0 0 1-2.152-2.15V44.06a2.153 2.153 0 0 1 2.152-2.152h.052a2.151 2.151 0 0 1 2.15 2.152v39.162a2.15 2.15 0 0 1-2.15 2.15" fill="#1e243b"/><path data-name="Path 6951" d="M52.596 85.375h.052a2.152 2.152 0 0 0 2.152-2.15V44.06a2.153 2.153 0 0 0-2.152-2.152h-.052a2.151 2.151 0 0 0-2.15 2.152v39.162a2.15 2.15 0 0 0 2.15 2.15" fill="#1e243b"/><path data-name="Path 6952" d="M72.493 13.864a9 9 0 0 0-8.644-6.566 9.1 9.1 0 0 0-1.313.131 11.292 11.292 0 0 0-20.451-1.674 8.126 8.126 0 0 0-12.134 1.9 10.345 10.345 0 0 0-18.4 2.624c-.332-.031-.652-.1-.991-.1A10.565 10.565 0 0 0 0 20.741v35.635a5.84 5.84 0 0 0 11.681 0V41.32a8.848 8.848 0 0 0 10.408-3.168v8.046a5.84 5.84 0 0 0 11.681 0V31.069a10.329 10.329 0 0 0 11.471.679 9.336 9.336 0 0 0 16.147 4.664 12.577 12.577 0 1 0 11.105-22.547" fill="#112041"/></g><path data-name="Path 6953" d="M77.566 82.476H69.84v-6.434h7.726a1.381 1.381 0 0 0 1.379-1.379V51.092a1.38 1.38 0 0 0-1.379-1.377H69.84v-6.436h7.726a7.823 7.823 0 0 1 7.813 7.813v23.571a7.821 7.821 0 0 1-7.813 7.813" fill="#7cc9c1"/></g></svg>