<svg width="101.254" height="89.095" xmlns="http://www.w3.org/2000/svg"><g data-name="Group 20068"><g data-name="Group 20067" transform="translate(-302.91 -470.748)"><rect data-name="Rectangle 6250" width="145.38" height="145.38" rx="9.837" transform="translate(272.931 437.828)" fill="rgba(0,0,0,0)" stroke="#1e243b" stroke-miterlimit="10" style="fill:none"/><path data-name="Path 6912" d="M385.969 547.274h-78.4a4.66 4.66 0 0 1-4.659-4.659V482.24a4.659 4.659 0 0 1 4.659-4.659h78.4a4.659 4.659 0 0 1 4.659 4.659v60.374a4.66 4.66 0 0 1-4.659 4.659" fill="#7cc9c1" stroke="rgba(0,0,0,0)"/><path data-name="Path 6913" d="M302.912 482.24v9.005h87.72v-9.005a4.661 4.661 0 0 0-4.661-4.659h-78.4a4.66 4.66 0 0 0-4.659 4.659" fill="#1e243b" stroke="rgba(0,0,0,0)"/><path data-name="Path 6914" d="M316.286 500.663a2.733 2.733 0 1 1-2.732-2.734 2.731 2.731 0 0 1 2.732 2.734" fill="#1e243b" stroke="rgba(0,0,0,0)"/><path data-name="Path 6915" d="M329.573 500.663a2.733 2.733 0 1 1-2.734-2.734 2.731 2.731 0 0 1 2.734 2.734" fill="#1e243b" stroke="rgba(0,0,0,0)"/><path data-name="Path 6916" d="M342.86 500.663a2.733 2.733 0 1 1-2.734-2.734 2.731 2.731 0 0 1 2.734 2.734" fill="#1e243b" stroke="rgba(0,0,0,0)"/><path data-name="Path 6917" d="M356.143 500.663a2.733 2.733 0 1 1-2.734-2.734 2.731 2.731 0 0 1 2.734 2.734" fill="#1e243b" stroke="rgba(0,0,0,0)"/><path data-name="Path 6918" d="M369.43 500.663a2.733 2.733 0 1 1-2.734-2.734 2.731 2.731 0 0 1 2.734 2.734" fill="#1e243b" stroke="rgba(0,0,0,0)"/><path data-name="Path 6919" d="M382.718 500.663a2.733 2.733 0 1 1-2.732-2.734 2.731 2.731 0 0 1 2.732 2.734" fill="#1e243b" stroke="rgba(0,0,0,0)"/><path data-name="Path 6920" d="M316.286 512.996a2.733 2.733 0 1 1-2.732-2.734 2.731 2.731 0 0 1 2.732 2.734" fill="#1e243b" stroke="rgba(0,0,0,0)"/><path data-name="Path 6921" d="M329.573 512.996a2.733 2.733 0 1 1-2.734-2.734 2.732 2.732 0 0 1 2.734 2.734" fill="#1e243b" stroke="rgba(0,0,0,0)"/><path data-name="Path 6922" d="M342.86 512.996a2.733 2.733 0 1 1-2.734-2.734 2.731 2.731 0 0 1 2.734 2.734" fill="#1e243b" stroke="rgba(0,0,0,0)"/><path data-name="Path 6923" d="M356.143 512.996a2.733 2.733 0 1 1-2.734-2.734 2.732 2.732 0 0 1 2.734 2.734" fill="#1e243b" stroke="rgba(0,0,0,0)"/><path data-name="Path 6924" d="M369.43 512.996a2.733 2.733 0 1 1-2.734-2.734 2.731 2.731 0 0 1 2.734 2.734" fill="#1e243b" stroke="rgba(0,0,0,0)"/><path data-name="Path 6925" d="M382.718 512.996a2.733 2.733 0 1 1-2.732-2.734 2.731 2.731 0 0 1 2.732 2.734" fill="#1e243b" stroke="rgba(0,0,0,0)"/><path data-name="Path 6926" d="M316.286 525.329a2.733 2.733 0 1 1-2.732-2.732 2.733 2.733 0 0 1 2.732 2.732" fill="#1e243b" stroke="rgba(0,0,0,0)"/><path data-name="Path 6927" d="M329.573 525.329a2.733 2.733 0 1 1-2.734-2.732 2.733 2.733 0 0 1 2.734 2.732" fill="#1e243b" stroke="rgba(0,0,0,0)"/><path data-name="Path 6928" d="M342.86 525.329a2.733 2.733 0 1 1-2.734-2.732 2.733 2.733 0 0 1 2.734 2.732" fill="#1e243b" stroke="rgba(0,0,0,0)"/><path data-name="Path 6929" d="M356.143 525.329a2.733 2.733 0 1 1-2.734-2.732 2.733 2.733 0 0 1 2.734 2.732" fill="#1e243b" stroke="rgba(0,0,0,0)"/><path data-name="Path 6930" d="M369.43 525.329a2.733 2.733 0 1 1-2.734-2.732 2.733 2.733 0 0 1 2.734 2.732" fill="#1e243b" stroke="rgba(0,0,0,0)"/><path data-name="Path 6931" d="M382.718 525.329a2.733 2.733 0 1 1-2.732-2.732 2.733 2.733 0 0 1 2.732 2.732" fill="#1e243b" stroke="rgba(0,0,0,0)"/><path data-name="Path 6932" d="M316.286 537.662a2.733 2.733 0 1 1-2.732-2.734 2.733 2.733 0 0 1 2.732 2.734" fill="#1e243b" stroke="rgba(0,0,0,0)"/><path data-name="Path 6933" d="M329.573 537.662a2.733 2.733 0 1 1-2.734-2.734 2.733 2.733 0 0 1 2.734 2.734" fill="#1e243b" stroke="rgba(0,0,0,0)"/><path data-name="Path 6934" d="M342.86 537.662a2.733 2.733 0 1 1-2.734-2.734 2.733 2.733 0 0 1 2.734 2.734" fill="#1e243b" stroke="rgba(0,0,0,0)"/><path data-name="Path 6935" d="M356.143 537.662a2.733 2.733 0 1 1-2.734-2.734 2.733 2.733 0 0 1 2.734 2.734" fill="#1e243b" stroke="rgba(0,0,0,0)"/><path data-name="Path 6936" d="M369.43 537.662a2.733 2.733 0 1 1-2.734-2.734 2.733 2.733 0 0 1 2.734 2.734" fill="#1e243b" stroke="rgba(0,0,0,0)"/><path data-name="Path 6937" d="M382.718 537.662a2.733 2.733 0 1 1-2.732-2.734 2.733 2.733 0 0 1 2.732 2.734" fill="#1e243b" stroke="rgba(0,0,0,0)"/><path data-name="Path 6938" d="M346.769 484.414a2.375 2.375 0 0 1-2.374-2.374v-8.918a2.374 2.374 0 0 1 4.749 0v8.918a2.375 2.375 0 0 1-2.374 2.374" fill="#112041" stroke="rgba(0,0,0,0)"/><path data-name="Path 6939" d="M312.84 484.414a2.375 2.375 0 0 1-2.374-2.374v-8.918a2.374 2.374 0 0 1 4.749 0v8.918a2.375 2.375 0 0 1-2.374 2.374" fill="#112041" stroke="rgba(0,0,0,0)"/><path data-name="Path 6940" d="M329.196 484.414a2.375 2.375 0 0 1-2.374-2.374v-8.918a2.374 2.374 0 0 1 4.749 0v8.918a2.375 2.375 0 0 1-2.374 2.374" fill="#112041" stroke="rgba(0,0,0,0)"/><path data-name="Path 6941" d="M380.698 484.414a2.375 2.375 0 0 0 2.374-2.374v-8.918a2.374 2.374 0 0 0-4.749 0v8.918a2.375 2.375 0 0 0 2.374 2.374" fill="#112041" stroke="rgba(0,0,0,0)"/><path data-name="Path 6942" d="M364.339 484.414a2.375 2.375 0 0 0 2.374-2.374v-8.918a2.374 2.374 0 0 0-4.749 0v8.918a2.375 2.375 0 0 0 2.374 2.374" fill="#112041" stroke="rgba(0,0,0,0)"/><path data-name="Path 6943" d="M404.164 540.393a19.449 19.449 0 1 1-19.448-19.448 19.448 19.448 0 0 1 19.448 19.448" fill="#112041" stroke="rgba(0,0,0,0)"/><path data-name="Path 6944" d="M401.35 540.393a16.634 16.634 0 1 1-16.633-16.633 16.634 16.634 0 0 1 16.633 16.633" fill="#1e243b" stroke="rgba(0,0,0,0)"/><path data-name="Path 6945" d="M391.561 540.393a6.846 6.846 0 1 1-6.847-6.847 6.846 6.846 0 0 1 6.847 6.847" fill="#7cc9c1" stroke="rgba(0,0,0,0)"/><path data-name="Path 6946" d="M204.079 293.05v12.333l6.847 6.88" fill="rgba(0,0,0,0)" stroke="#f1ebe5" stroke-linecap="round" stroke-linejoin="round" stroke-width=".897" transform="translate(180.637 235.011)" style="fill:none"/></g></g></svg>