<svg xmlns="http://www.w3.org/2000/svg" width="112.327" height="98.945"><g data-name="Group 20072"><path data-name="Path 6846" d="M19.821 43.443c-2.482 4.61-5.627 7.736-7.023 6.984s-.517-5.1 1.965-9.707 5.628-7.736 7.023-6.984.517 5.1-1.965 9.707" fill="#1e243b"/><g data-name="Group 20071"><path data-name="Path 6845" d="M111.662 82.142 21.786 33.736l-8.99 16.687 89.876 48.406c1.4.752 4.543-2.374 7.026-6.984s3.361-8.955 1.965-9.707" fill="#112041"/><g data-name="Group 20069"><g data-name="Group 20070" fill="#7cc9c1"><path data-name="Path 6847" d="m83.32 88.411 19.351 10.422c1.4.752 4.541-2.374 7.023-6.984s3.361-8.955 1.965-9.707l-19.348-10.42c1.4.752.515 5.1-1.967 9.707s-5.627 7.736-7.023 6.984"/><path data-name="Path 6848" d="M81.937 66.132c1.4.752.517 5.1-1.965 9.707s-5.628 7.736-7.026 6.984l4.46 2.4c1.4.752 4.541-2.374 7.023-6.984s3.363-8.955 1.965-9.707z"/><path data-name="Path 6849" d="M13.515 37.712a15.444 15.444 0 0 1-.461-11.151 17.427 17.427 0 0 1 2.73-5.241 39.446 39.446 0 0 1 3.8-4.059 29.962 29.962 0 0 0 1.706-1.764 11.509 11.509 0 0 0 1.354-1.776 11.2 11.2 0 0 0 1.56-4.128A14.231 14.231 0 0 0 22.43 0a10.188 10.188 0 0 1 3.9 4.078 12.785 12.785 0 0 1 1.487 5.74 12.538 12.538 0 0 1-1.359 6.033 18.254 18.254 0 0 1-3.652 4.7c-1.323 1.284-2.609 2.4-3.664 3.554a19.964 19.964 0 0 0-2.759 3.86 24.435 24.435 0 0 0-2.865 9.751"/><path data-name="Path 6850" d="M10.56 43.193a11.467 11.467 0 0 1-5.509-6.859 13.375 13.375 0 0 1-.6-4.662 29.086 29.086 0 0 1 .658-4.29 15.848 15.848 0 0 0 .451-3.438 8.492 8.492 0 0 0-.642-3.149 11.361 11.361 0 0 0-4.917-5.584 7.605 7.605 0 0 1 4.408.719 10 10 0 0 1 5.5 7.647 14.247 14.247 0 0 1-.293 4.728c-.3 1.406-.642 2.659-.833 3.8a15.988 15.988 0 0 0-.191 3.529 20.565 20.565 0 0 0 1.967 7.557"/></g></g></g></g></svg>