<svg width="462.256" height="462.256" xmlns="http://www.w3.org/2000/svg"><defs><clipPath id="a"><path data-name="Rectangle 6317" fill="none" d="M0 0h462.256v462.256H0z"/></clipPath><clipPath id="b"><path data-name="Path 7070" d="M33.87 219.689c0 105.445 85.481 190.924 190.926 190.924s190.926-85.48 190.926-190.924S330.241 28.763 224.8 28.763 33.87 114.243 33.87 219.689" transform="translate(-33.87 -28.763)" fill="none"/></clipPath><clipPath id="c"><path data-name="Rectangle 6310" fill="none" d="M0 0h11.831v150.576H0z"/></clipPath><clipPath id="d"><path data-name="Rectangle 6311" fill="none" d="M0 0h11.831v21.511H0z"/></clipPath></defs><g data-name="Group 17128" clip-path="url(#a)" transform="translate(-48.412 -41.144) scale(1.20239)"><g data-name="Group 17107"><g data-name="Group 17106" clip-path="url(#b)" transform="translate(41.565 35.298)"><path data-name="Path 7069" d="M420.691 195.83c0-127.648-103.48-231.128-231.128-231.128-127.648 0-231.128 103.48-231.128 231.128 0 127.648 103.48 231.128 231.128 231.128 127.648 0 231.128-103.48 231.128-231.128" fill="#061b5c"/></g></g><g data-name="Group 17127"><g data-name="Group 17126" clip-path="url(#a)"><path data-name="Path 7071" d="M172.893 385.287a22.228 22.228 0 0 1-22.228-22.228V171.613h44.456v191.446a22.227 22.227 0 0 1-22.228 22.228" fill="#6f96cf"/><path data-name="Path 7072" d="M172.897 380.806a18.642 18.642 0 0 1-18.64-18.642V231.126h37.284v131.038a18.642 18.642 0 0 1-18.642 18.642" fill="#fcacac"/><path data-name="Path 7073" d="M186.439 346.965a14.2 14.2 0 1 0-14.2 14.2 14.2 14.2 0 0 0 14.2-14.2" fill="#fff"/><path data-name="Path 7074" d="M172.238 361.934a14.969 14.969 0 1 1 14.968-14.972 14.986 14.986 0 0 1-14.968 14.969m0-28.4a13.435 13.435 0 1 0 13.434 13.431 13.45 13.45 0 0 0-13.434-13.434" fill="#b74141"/><path data-name="Path 7075" d="M182.602 346.965a10.363 10.363 0 1 0-10.364 10.364 10.364 10.364 0 0 0 10.364-10.364" fill="#fcacac"/><path data-name="Path 7076" d="M175.259 339.864a2.813 2.813 0 1 0-2.813 2.813 2.812 2.812 0 0 0 2.813-2.813" fill="#ff7976"/><path data-name="Path 7077" d="M180.345 342.857a2.813 2.813 0 1 0-2.813 2.813 2.812 2.812 0 0 0 2.813-2.813" fill="#ff7976"/><path data-name="Path 7078" d="M181.803 348.635a2.813 2.813 0 1 0-2.813 2.813 2.812 2.812 0 0 0 2.813-2.813" fill="#ff7976"/><path data-name="Path 7079" d="M177.835 353.23a2.813 2.813 0 1 0-2.813 2.814 2.812 2.812 0 0 0 2.813-2.814" fill="#ff7976"/><path data-name="Path 7080" d="M171.849 353.159a2.813 2.813 0 1 0-2.813 2.813 2.812 2.812 0 0 0 2.813-2.813" fill="#ff7976"/><path data-name="Path 7081" d="M168.441 348.148a2.813 2.813 0 1 0-2.813 2.813 2.812 2.812 0 0 0 2.813-2.813" fill="#ff7976"/><path data-name="Path 7082" d="M169.899 342.3a2.813 2.813 0 1 0-2.813 2.813 2.812 2.812 0 0 0 2.813-2.813" fill="#ff7976"/><path data-name="Path 7083" d="M174.912 346.899a2.813 2.813 0 1 0-2.813 2.813 2.812 2.812 0 0 0 2.813-2.813" fill="#ff7976"/><path data-name="Path 7084" d="M196.38 175.914h-46.965a4.481 4.481 0 1 1 0-8.962h46.966a4.481 4.481 0 1 1 0 8.962" fill="#6f96cf"/><g data-name="Group 17110" opacity=".47"><g data-name="Group 17109"><g data-name="Group 17108" clip-path="url(#c)" transform="translate(161.425 220.908)"><path data-name="Path 7085" d="M5.915 0A5.932 5.932 0 0 0 0 5.915v138.746a5.915 5.915 0 1 0 11.83 0V5.915A5.932 5.932 0 0 0 5.915 0" fill="#fff"/></g></g></g><g data-name="Group 17113" opacity=".47"><g data-name="Group 17112"><g data-name="Group 17111" clip-path="url(#d)" transform="translate(161.425 194.737)"><path data-name="Path 7086" d="M5.915 0A5.932 5.932 0 0 0 0 5.915v9.68a5.915 5.915 0 1 0 11.83 0V5.914A5.932 5.932 0 0 0 5.915-.001" fill="#fff"/></g></g></g><path data-name="Path 7087" d="M236.181 385.287a22.228 22.228 0 0 1-22.229-22.228V171.613h44.456v191.446a22.228 22.228 0 0 1-22.227 22.228" fill="#6f96cf"/><path data-name="Path 7088" d="M236.181 380.806a18.642 18.642 0 0 1-18.643-18.642V231.126h37.284v131.038a18.641 18.641 0 0 1-18.641 18.642" fill="#fcacac"/><path data-name="Path 7089" d="M249.722 346.965a14.2 14.2 0 1 0-14.2 14.2 14.2 14.2 0 0 0 14.2-14.2" fill="#fff"/><path data-name="Path 7090" d="M235.521 361.934a14.969 14.969 0 1 1 14.968-14.972 14.986 14.986 0 0 1-14.968 14.969m0-28.4a13.435 13.435 0 1 0 13.434 13.431 13.45 13.45 0 0 0-13.434-13.434" fill="#b74141"/><path data-name="Path 7091" d="M245.883 346.965a10.363 10.363 0 1 0-10.364 10.364 10.364 10.364 0 0 0 10.364-10.364" fill="#fcacac"/><path data-name="Path 7092" d="M238.542 339.864a2.813 2.813 0 1 0-2.813 2.813 2.812 2.812 0 0 0 2.813-2.813" fill="#ff7976"/><path data-name="Path 7093" d="M243.624 342.857a2.813 2.813 0 1 0-2.813 2.813 2.812 2.812 0 0 0 2.813-2.813" fill="#ff7976"/><path data-name="Path 7094" d="M245.087 348.635a2.813 2.813 0 1 0-2.813 2.813 2.812 2.812 0 0 0 2.813-2.813" fill="#ff7976"/><path data-name="Path 7095" d="M241.118 353.23a2.813 2.813 0 1 0-2.813 2.814 2.812 2.812 0 0 0 2.813-2.814" fill="#ff7976"/><path data-name="Path 7096" d="M235.132 353.159a2.813 2.813 0 1 0-2.813 2.813 2.812 2.812 0 0 0 2.813-2.813" fill="#ff7976"/><path data-name="Path 7097" d="M231.72 348.148a2.813 2.813 0 1 0-2.813 2.813 2.812 2.812 0 0 0 2.813-2.813" fill="#ff7976"/><path data-name="Path 7098" d="M233.182 342.3a2.813 2.813 0 1 0-2.813 2.813 2.812 2.812 0 0 0 2.813-2.813" fill="#ff7976"/><path data-name="Path 7099" d="M238.195 346.899a2.813 2.813 0 1 0-2.813 2.813 2.812 2.812 0 0 0 2.813-2.813" fill="#ff7976"/><path data-name="Path 7100" d="M259.664 175.914h-46.965a4.481 4.481 0 1 1 0-8.962h46.966a4.481 4.481 0 1 1 0 8.962" fill="#6f96cf"/><g data-name="Group 17116" opacity=".47"><g data-name="Group 17115"><g data-name="Group 17114" clip-path="url(#c)" transform="translate(224.709 220.908)"><path data-name="Path 7101" d="M5.915 0A5.932 5.932 0 0 0 0 5.915v138.746a5.915 5.915 0 1 0 11.83 0V5.915A5.932 5.932 0 0 0 5.915 0" fill="#fff"/></g></g></g><g data-name="Group 17119" opacity=".47"><g data-name="Group 17118"><g data-name="Group 17117" clip-path="url(#d)" transform="translate(224.709 194.737)"><path data-name="Path 7102" d="M5.915 0A5.932 5.932 0 0 0 0 5.915v9.68a5.915 5.915 0 1 0 11.83 0V5.914A5.932 5.932 0 0 0 5.915-.001" fill="#fff"/></g></g></g><path data-name="Path 7103" d="M299.465 385.287a22.227 22.227 0 0 1-22.228-22.228V171.613h44.456v191.446a22.228 22.228 0 0 1-22.228 22.228" fill="#6f96cf"/><path data-name="Path 7104" d="M299.465 380.806a18.642 18.642 0 0 1-18.642-18.642V231.126h37.284v131.038a18.642 18.642 0 0 1-18.642 18.642" fill="#fcacac"/><path data-name="Path 7105" d="M313.007 346.965a14.2 14.2 0 1 0-14.2 14.2 14.2 14.2 0 0 0 14.2-14.2" fill="#fff"/><path data-name="Path 7106" d="M298.805 361.934a14.969 14.969 0 1 1 14.968-14.972 14.986 14.986 0 0 1-14.968 14.969m0-28.4a13.435 13.435 0 1 0 13.434 13.431 13.45 13.45 0 0 0-13.434-13.434" fill="#b74141"/><path data-name="Path 7107" d="M309.169 346.965a10.363 10.363 0 1 0-10.364 10.364 10.364 10.364 0 0 0 10.364-10.364" fill="#fcacac"/><path data-name="Path 7108" d="M301.828 339.864a2.813 2.813 0 1 0-2.814 2.813 2.814 2.814 0 0 0 2.814-2.813" fill="#ff7976"/><path data-name="Path 7109" d="M306.909 342.857a2.813 2.813 0 1 0-2.813 2.813 2.812 2.812 0 0 0 2.813-2.813" fill="#ff7976"/><path data-name="Path 7110" d="M308.37 348.635a2.813 2.813 0 1 0-2.813 2.813 2.812 2.812 0 0 0 2.813-2.813" fill="#ff7976"/><path data-name="Path 7111" d="M304.402 353.23a2.813 2.813 0 1 0-2.813 2.814 2.812 2.812 0 0 0 2.813-2.814" fill="#ff7976"/><path data-name="Path 7112" d="M298.415 353.159a2.813 2.813 0 1 0-2.813 2.813 2.812 2.812 0 0 0 2.813-2.813" fill="#ff7976"/><path data-name="Path 7113" d="M295.004 348.148a2.813 2.813 0 1 0-2.813 2.813 2.812 2.812 0 0 0 2.813-2.813" fill="#ff7976"/><path data-name="Path 7114" d="M296.467 342.3a2.813 2.813 0 1 0-2.813 2.813 2.812 2.812 0 0 0 2.813-2.813" fill="#ff7976"/><path data-name="Path 7115" d="M301.479 346.899a2.813 2.813 0 1 0-2.813 2.813 2.812 2.812 0 0 0 2.813-2.813" fill="#ff7976"/><path data-name="Path 7116" d="M322.947 175.914h-46.966a4.481 4.481 0 0 1 0-8.962h46.966a4.481 4.481 0 1 1 0 8.962" fill="#6f96cf"/><g data-name="Group 17122" opacity=".47"><g data-name="Group 17121"><g data-name="Group 17120" clip-path="url(#c)" transform="translate(287.992 220.908)"><path data-name="Path 7117" d="M5.915 0A5.932 5.932 0 0 0 0 5.915v138.746a5.915 5.915 0 0 0 11.83 0V5.915A5.932 5.932 0 0 0 5.915 0" fill="#fff"/></g></g></g><g data-name="Group 17125" opacity=".47"><g data-name="Group 17124"><g data-name="Group 17123" clip-path="url(#d)" transform="translate(287.992 194.737)"><path data-name="Path 7118" d="M5.915 0A5.932 5.932 0 0 0 0 5.915v9.68a5.915 5.915 0 1 0 11.83 0V5.914A5.932 5.932 0 0 0 5.915-.001" fill="#fff"/></g></g></g><path data-name="Path 7119" d="M233.849 146.367a2.1 2.1 0 0 0 2.1-2.1V66.984a2.1 2.1 0 0 0-4.195 0v77.286a2.1 2.1 0 0 0 2.1 2.1" fill="#fff"/><path data-name="Path 7120" d="M233.746 69.715a2.1 2.1 0 0 0 1.482-.614l7.5-7.494a2.1 2.1 0 1 0-2.966-2.967l-6.012 6.013-5.815-5.811a2.1 2.1 0 0 0-2.966 2.965l7.29 7.291a2.1 2.1 0 0 0 1.482.614" fill="#fff"/><path data-name="Path 7121" d="M233.746 79.245a2.093 2.093 0 0 0 1.482-.615l7.5-7.494a2.1 2.1 0 1 0-2.966-2.966l-6.012 6.012-5.815-5.807a2.1 2.1 0 0 0-2.966 2.966l7.29 7.289a2.093 2.093 0 0 0 1.482.615" fill="#fff"/><path data-name="Path 7122" d="M233.746 141.175a2.093 2.093 0 0 1 1.482.615l7.5 7.5a2.1 2.1 0 1 1-2.966 2.965l-6.012-6.012-5.815 5.802a2.1 2.1 0 0 1-2.966-2.966l7.29-7.289a2.093 2.093 0 0 1 1.482-.615" fill="#fff"/><path data-name="Path 7123" d="M233.746 131.646a2.093 2.093 0 0 1 1.482.615l7.5 7.494a2.1 2.1 0 1 1-2.966 2.966l-6.012-6.012-5.806 5.807a2.1 2.1 0 0 1-2.966-2.966l7.29-7.289a2.093 2.093 0 0 1 1.482-.615" fill="#fff"/><path data-name="Path 7124" d="M274.711 104.994a2.1 2.1 0 0 0-2.1-2.1h-77.283a2.1 2.1 0 0 0 0 4.195h77.286a2.1 2.1 0 0 0 2.1-2.1" fill="#fff"/><path data-name="Path 7125" d="M198.06 105.098a2.093 2.093 0 0 0-.615-1.481l-7.494-7.5a2.1 2.1 0 0 0-2.966 2.965l6.012 6.012-5.807 5.806a2.1 2.1 0 0 0 2.966 2.966l7.289-7.289a2.093 2.093 0 0 0 .615-1.482" fill="#fff"/><path data-name="Path 7126" d="M207.589 105.098a2.093 2.093 0 0 0-.615-1.481l-7.494-7.5a2.1 2.1 0 1 0-2.966 2.965l6.012 6.012-5.806 5.806a2.1 2.1 0 1 0 2.965 2.966l7.289-7.289a2.093 2.093 0 0 0 .615-1.482" fill="#fff"/><path data-name="Path 7127" d="M269.521 105.098a2.093 2.093 0 0 1 .615-1.481l7.494-7.5a2.1 2.1 0 1 1 2.966 2.964l-6.012 6.012 5.806 5.806a2.1 2.1 0 1 1-2.965 2.966l-7.289-7.284a2.093 2.093 0 0 1-.615-1.482" fill="#fff"/><path data-name="Path 7128" d="M259.99 105.098a2.093 2.093 0 0 1 .615-1.481l7.494-7.5a2.1 2.1 0 0 1 2.966 2.965l-6.012 6.012 5.807 5.806a2.1 2.1 0 1 1-2.966 2.966l-7.289-7.285a2.093 2.093 0 0 1-.615-1.482" fill="#fff"/><path data-name="Path 7129" d="M264.153 132.862a2.1 2.1 0 0 0-.152-2.962l-57.376-51.779a2.1 2.1 0 0 0-2.811 3.115l57.377 51.777a2.1 2.1 0 0 0 2.962-.152" fill="#fff"/><path data-name="Path 7130" d="M207.177 81.584a2.1 2.1 0 0 0 .538-1.513l-.543-10.584a2.1 2.1 0 1 0-4.188.214l.436 8.492-8.2.42a2.1 2.1 0 1 0 .215 4.188l10.295-.526a2.1 2.1 0 0 0 1.449-.69" fill="#fff"/><path data-name="Path 7131" d="M214.252 87.969a2.1 2.1 0 0 0 .538-1.513l-.544-10.584a2.1 2.1 0 1 0-4.188.215l.436 8.491-8.2.42a2.1 2.1 0 0 0 .215 4.19l10.295-.528a2.1 2.1 0 0 0 1.449-.69" fill="#fff"/><path data-name="Path 7132" d="M260.23 129.46a2.1 2.1 0 0 1 1.449-.69l10.586-.542a2.1 2.1 0 1 1 .215 4.188l-8.491.436.421 8.2a2.1 2.1 0 1 1-4.188.215l-.529-10.294a2.1 2.1 0 0 1 .538-1.513" fill="#fff"/><path data-name="Path 7133" d="M253.155 123.076a2.1 2.1 0 0 1 1.449-.69l10.586-.542a2.1 2.1 0 1 1 .215 4.188l-8.491.436.421 8.2a2.1 2.1 0 1 1-4.188.215l-.529-10.295a2.1 2.1 0 0 1 .538-1.512" fill="#fff"/><path data-name="Path 7134" d="M203.545 132.862a2.1 2.1 0 0 1 .152-2.962l57.377-51.777a2.1 2.1 0 1 1 2.81 3.115l-57.377 51.777a2.1 2.1 0 0 1-2.962-.152" fill="#fff"/><path data-name="Path 7135" d="M260.52 81.584a2.1 2.1 0 0 1-.538-1.513l.544-10.584a2.1 2.1 0 1 1 4.188.214l-.435 8.494 8.2.42a2.1 2.1 0 1 1-.215 4.188l-10.295-.526a2.1 2.1 0 0 1-1.449-.69" fill="#fff"/><path data-name="Path 7136" d="M253.446 87.969a2.1 2.1 0 0 1-.538-1.513l.544-10.584a2.1 2.1 0 1 1 4.188.215l-.436 8.491 8.2.42a2.1 2.1 0 1 1-.215 4.19l-10.295-.528a2.1 2.1 0 0 1-1.449-.69" fill="#fff"/><path data-name="Path 7137" d="M207.472 129.46a2.1 2.1 0 0 0-1.449-.69l-10.586-.542a2.1 2.1 0 1 0-.215 4.188l8.491.436-.421 8.2a2.1 2.1 0 1 0 4.188.215l.529-10.294a2.1 2.1 0 0 0-.538-1.513" fill="#fff"/><path data-name="Path 7138" d="M214.542 123.076a2.1 2.1 0 0 0-1.449-.69l-10.586-.542a2.1 2.1 0 1 0-.215 4.188l8.491.436-.422 8.2a2.1 2.1 0 1 0 4.19.215l.53-10.295a2.1 2.1 0 0 0-.538-1.512" fill="#fff"/><path data-name="Path 7139" d="M210.052 104.994a23.92 23.92 0 1 1 23.919 23.92 23.946 23.946 0 0 1-23.919-23.92m3.355 0a20.565 20.565 0 1 0 20.564-20.565 20.588 20.588 0 0 0-20.564 20.565" fill="#fff"/></g></g></g></svg>