<svg xmlns="http://www.w3.org/2000/svg" width="891.257" height="507.568"><defs><clipPath id="a"><path data-name="Rectangle 7775" fill="none" d="M0 0h891.257v507.568H0z"/></clipPath></defs><g data-name="Group 20678" clip-path="url(#a)"><g data-name="Group 20677"><g data-name="Group 20676" clip-path="url(#a)"><path data-name="Path 9969" d="M797.1 51.9a1.057 1.057 0 0 1-.275-.036 1.1 1.1 0 0 1-.793-1.343l12.492-48.182L665.447 14.7a1.104 1.104 0 1 1-.19-2.2L809.886.008a1.074 1.074 0 0 1 .936.386 1.1 1.1 0 0 1 .226.989l-12.88 49.7a1.1 1.1 0 0 1-1.068.825" fill="#0e1b47"/><path data-name="Path 9970" d="M783.303 69.097a1.449 1.449 0 0 1-.367-.047 1.47 1.47 0 0 1-1.056-1.791l.815-3.146a1.47 1.47 0 0 1 2.847.738l-.815 3.146a1.472 1.472 0 0 1-1.424 1.1m3.027-11.68a1.432 1.432 0 0 1-.369-.048 1.47 1.47 0 0 1-1.054-1.79l1.476-5.688a1.47 1.47 0 0 1 2.846.737l-1.474 5.689a1.472 1.472 0 0 1-1.424 1.1m3.688-14.221a1.392 1.392 0 0 1-.367-.048 1.47 1.47 0 0 1-1.056-1.79l1.474-5.689a1.471 1.471 0 0 1 2.847.738l-1.476 5.688a1.471 1.471 0 0 1-1.423 1.1m3.688-14.224a1.437 1.437 0 0 1-.367-.047 1.47 1.47 0 0 1-1.057-1.791l1.472-5.688a1.47 1.47 0 0 1 2.847.738l-1.472 5.688a1.472 1.472 0 0 1-1.423 1.1m-175.292-.686a1.469 1.469 0 0 1-.123-2.932l5.854-.5a1.469 1.469 0 1 1 .252 2.926l-5.853.5a1.26 1.26 0 0 1-.13.006m14.638-1.263a1.469 1.469 0 0 1-.123-2.933l5.853-.507a1.47 1.47 0 1 1 .253 2.928l-5.854.506a1.237 1.237 0 0 1-.129.007m14.638-1.265a1.469 1.469 0 0 1-.124-2.932l5.854-.507a1.47 1.47 0 0 1 .253 2.928l-5.854.506a1.239 1.239 0 0 1-.129.006m14.637-1.265a1.469 1.469 0 0 1-.123-2.932l5.854-.511a1.47 1.47 0 0 1 .253 2.928l-5.854.5a1.26 1.26 0 0 1-.13.006m14.638-1.264a1.469 1.469 0 0 1-.123-2.933l5.854-.5a1.47 1.47 0 0 1 .253 2.928l-5.854.5a1.26 1.26 0 0 1-.13.006m14.638-1.264a1.469 1.469 0 0 1-.123-2.933l5.854-.5a1.469 1.469 0 0 1 .253 2.926l-5.854.506a1.262 1.262 0 0 1-.13.006m14.638-1.264a1.469 1.469 0 0 1-.123-2.933l5.854-.506a1.469 1.469 0 1 1 .252 2.926l-5.854.507c-.043 0-.086.006-.129.006m14.638-1.264a1.469 1.469 0 0 1-.124-2.933l5.854-.506a1.453 1.453 0 0 1 1.59 1.337 1.468 1.468 0 0 1-1.337 1.59l-5.854.507c-.043 0-.086.006-.129.006m14.638-1.266a1.469 1.469 0 0 1-.124-2.932l5.854-.5a1.469 1.469 0 0 1 .253 2.926l-5.854.5a1.238 1.238 0 0 1-.129.006m14.637-1.264a1.469 1.469 0 0 1-.123-2.932l5.854-.506a1.47 1.47 0 0 1 .253 2.928l-5.854.5a1.259 1.259 0 0 1-.13.006m14.638-1.264a1.469 1.469 0 0 1-.123-2.933l5.854-.5a1.469 1.469 0 1 1 .252 2.926l-5.853.5a1.259 1.259 0 0 1-.13.006m32.6-.892a1.467 1.467 0 0 1-1.432-1.793l-1.762.152a1.47 1.47 0 1 1-.252-2.928l3.828-.325a1.431 1.431 0 0 1 1.247.515 1.479 1.479 0 0 1 .3 1.318l-.512 1.967a1.471 1.471 0 0 1-1.423 1.1m-17.961-.372a1.469 1.469 0 0 1-.123-2.932l5.854-.507a1.47 1.47 0 0 1 .252 2.928l-5.854.506a1.226 1.226 0 0 1-.129.006" fill="#0e1b47"/><path data-name="Path 9971" d="M777.766 28.325 583.757 45.088l45.233 26.115-132.32 76.395a404.49 404.49 0 0 1 71.788-6.278 450.171 450.171 0 0 1 76.588 6.66l58.462-33.755 45.229 26.114z" fill="#fff"/><path data-name="Path 9972" d="m846.099 300.068-59.845-116.014-33.323 19.239c-62.506-33.416-143.23-47.761-216.408-42.02 32.3 19.8 55.479 40.35 69.841 62.043 25.312 3.813 50.45 11.461 72.477 22.752l-33.687 19.449z" fill="#0f1f4d"/><path data-name="Path 9973" d="m440.851 231.668-44.479-25.449-147.319 85.056a548.713 548.713 0 0 1 22.271-.447c15.976 0 33.841.6 53.1 1.782 27.769 1.7 49.746 2.794 65.7 3.261l76.2-43.992c-5.055-6.513-13.708-13.419-25.471-20.211" fill="#0f1f4d"/><path data-name="Path 9974" d="M278.285 102.174a1.1 1.1 0 0 1-.978-.6l-24.515-47.523a1.1 1.1 0 0 1 .088-1.158 1.126 1.126 0 0 1 1.076-.434l168.037 28.895a1.102 1.102 0 0 1-.373 2.172l-165.855-28.52 23.5 45.561a1.1 1.1 0 0 1-.474 1.484 1.08 1.08 0 0 1-.5.122" fill="#0e1b47"/><path data-name="Path 9975" d="M299.045 122.862a1.471 1.471 0 0 1-1.307-.795l-2.694-5.223a1.47 1.47 0 0 1 2.611-1.349l2.695 5.224a1.469 1.469 0 0 1-1.305 2.143m-6.735-13.058a1.467 1.467 0 0 1-1.305-.795l-2.695-5.222a1.47 1.47 0 1 1 2.611-1.349l2.695 5.223a1.469 1.469 0 0 1-1.305 2.143m153.64-12.479a1.5 1.5 0 0 1-.252-.021l-5.794-1a1.471 1.471 0 1 1 .5-2.9l5.794 1a1.469 1.469 0 0 1-.247 2.916m-160.375-.577a1.469 1.469 0 0 1-1.305-.795l-2.695-5.223a1.47 1.47 0 1 1 2.611-1.349l2.695 5.223a1.469 1.469 0 0 1-1.305 2.144m145.895-1.912a1.5 1.5 0 0 1-.252-.022l-5.794-1a1.471 1.471 0 1 1 .5-2.9l5.794 1a1.469 1.469 0 0 1-.247 2.918m-14.479-2.491a1.506 1.506 0 0 1-.253-.022l-5.794-1a1.471 1.471 0 1 1 .5-2.9l5.794 1a1.469 1.469 0 0 1-.246 2.918m-14.486-2.479a1.5 1.5 0 0 1-.253-.021l-5.794-1a1.471 1.471 0 1 1 .5-2.9l5.794 1a1.469 1.469 0 0 1-.247 2.921m-14.48-2.489a1.494 1.494 0 0 1-.252-.022l-5.795-1a1.471 1.471 0 1 1 .5-2.9l5.794 1a1.469 1.469 0 0 1-.246 2.918m-14.48-2.491a1.618 1.618 0 0 1-.248-.016l-5.8-1a1.471 1.471 0 1 1 .5-2.9l5.792 1a1.469 1.469 0 0 1-.246 2.918m-94.713-1.186a1.471 1.471 0 0 1-1.307-.8l-2.691-5.223a1.47 1.47 0 1 1 2.612-1.346l2.693 5.237a1.468 1.468 0 0 1-1.305 2.142m80.233-1.3a1.5 1.5 0 0 1-.252-.021l-5.791-1a1.471 1.471 0 1 1 .5-2.9l5.791 1a1.469 1.469 0 0 1-.247 2.916m-14.48-2.489a1.5 1.5 0 0 1-.252-.022l-5.791-1a1.471 1.471 0 1 1 .5-2.9l5.791 1a1.469 1.469 0 0 1-.247 2.918m-14.479-2.49a1.5 1.5 0 0 1-.253-.021l-5.79-1a1.471 1.471 0 1 1 .5-2.9l5.791 1a1.469 1.469 0 0 1-.246 2.918m-14.48-2.491a1.5 1.5 0 0 1-.253-.021l-5.79-1a1.471 1.471 0 1 1 .5-2.9l5.79 1a1.469 1.469 0 0 1-.246 2.916m-14.48-2.489a1.518 1.518 0 0 1-.253-.022l-5.79-1a1.471 1.471 0 1 1 .5-2.9l5.79 1a1.469 1.469 0 0 1-.246 2.918m-29.055-1.781a1.467 1.467 0 0 1-1.305-.8l-1.811-3.512a1.465 1.465 0 0 1 .121-1.54 1.485 1.485 0 0 1 1.434-.58l1.9.326a1.469 1.469 0 0 1 .362 2.783l.608 1.178a1.469 1.469 0 0 1-1.305 2.143m14.569-.7a1.49 1.49 0 0 1-.252-.021l-5.791-1a1.471 1.471 0 1 1 .5-2.9l5.79 1a1.469 1.469 0 0 1-.246 2.916" fill="#0e1b47"/><path data-name="Path 9976" d="M604.952 271.031q-5.824-52.2-87.233-99.2l-53.3-31.641 34.316-19.812-200.913-34.546 59.834 115.994 33.438-19.306 59.112 32.945q37.346 21.561 39.823 45.576t-24.94 39.847q-19.732 11.392-48.554 13.661-18.444 1.325-93.257-3.267t-115.357 2.891q-40.552 7.476-82 31.413-4.012 2.317-22.067 13.128l85.795 49.533q38.1-22.781 60.389-27.292t76.961-1.506q105.672 5.8 151.092-.018t76.509-23.774q56.168-32.429 50.349-84.625" fill="#fff"/><path data-name="Path 9980" d="M890.155 333.456a1.045 1.045 0 0 1-.186-.017l-65.564-11.275a1.1 1.1 0 0 1-.9-1.272 1.071 1.071 0 0 1 1.271-.9l63.384 10.9-52.008-100.821a1.102 1.102 0 0 1 1.958-1.011l53.023 102.789a1.1 1.1 0 0 1-.979 1.607" fill="#0e1b47"/><path data-name="Path 9981" d="M873.635 321.713a1.447 1.447 0 0 1-.25-.019l-2.672-.459a1.47 1.47 0 0 1 .273-2.919l-.109-.213a1.47 1.47 0 0 1 2.611-1.349l1.452 2.816a1.468 1.468 0 0 1-1.305 2.143m-11.355-1.954a1.5 1.5 0 0 1-.252-.02l-5.794-1a1.471 1.471 0 1 1 .5-2.9l5.795 1a1.47 1.47 0 0 1-.247 2.919m-14.478-2.487a1.5 1.5 0 0 1-.252-.02l-5.794-1a1.471 1.471 0 1 1 .5-2.9l5.794 1a1.47 1.47 0 0 1-.247 2.919m-14.479-2.491a1.505 1.505 0 0 1-.253-.02l-5.794-1a1.471 1.471 0 1 1 .5-2.9l5.794 1a1.47 1.47 0 0 1-.246 2.919m-14.48-2.488a1.627 1.627 0 0 1-.253-.02l-5.794-1a1.471 1.471 0 1 1 .5-2.9l5.794 1a1.47 1.47 0 0 1-.246 2.919m49.3-1.228a1.469 1.469 0 0 1-1.305-.795l-2.695-5.223a1.47 1.47 0 1 1 2.611-1.349l2.695 5.223a1.469 1.469 0 0 1-1.305 2.144m-63.782-1.263a1.51 1.51 0 0 1-.253-.02l-5.794-1a1.471 1.471 0 0 1 .5-2.9l5.794 1a1.47 1.47 0 0 1-.246 2.919m-14.48-2.489a1.632 1.632 0 0 1-.253-.019l-3.532-.609a1.471 1.471 0 1 1 .5-2.9l3.532.608a1.469 1.469 0 0 1-.246 2.918M861.414 298a1.469 1.469 0 0 1-1.306-.795l-2.704-5.21a1.47 1.47 0 0 1 2.612-1.349l2.695 5.224a1.469 1.469 0 0 1-1.305 2.143m-6.735-13.056a1.471 1.471 0 0 1-1.306-.795l-2.695-5.223a1.47 1.47 0 0 1 2.612-1.349l2.695 5.223a1.471 1.471 0 0 1-1.305 2.144m-6.737-13.062a1.469 1.469 0 0 1-1.305-.795l-2.695-5.223a1.47 1.47 0 1 1 2.611-1.349l2.695 5.223a1.471 1.471 0 0 1-1.305 2.144m-6.738-13.057a1.469 1.469 0 0 1-1.305-.795l-2.691-5.223a1.47 1.47 0 1 1 2.611-1.349l2.691 5.224a1.469 1.469 0 0 1-1.306 2.144m-6.734-13.057a1.471 1.471 0 0 1-1.306-.794l-2.694-5.223a1.47 1.47 0 1 1 2.611-1.349l2.695 5.223a1.467 1.467 0 0 1-1.305 2.143m-6.735-13.056a1.469 1.469 0 0 1-1.305-.795l-2.695-5.223a1.47 1.47 0 1 1 2.611-1.349l2.695 5.223a1.469 1.469 0 0 1-1.305 2.144m-6.735-13.056a1.469 1.469 0 0 1-1.305-.795l-2.695-5.226a1.47 1.47 0 0 1 2.608-1.354l2.694 5.226a1.469 1.469 0 0 1-1.305 2.144m-6.737-13.059a1.472 1.472 0 0 1-1.307-.795l-2.694-5.224a1.47 1.47 0 1 1 2.611-1.348l2.695 5.223a1.471 1.471 0 0 1-1.305 2.144m-6.735-13.057a1.469 1.469 0 0 1-1.305-.795l-2.695-5.223a1.47 1.47 0 1 1 2.611-1.349l2.695 5.223a1.469 1.469 0 0 1-1.305 2.144" fill="#0e1b47"/></g></g></g></svg>