<svg xmlns="http://www.w3.org/2000/svg" width="32.953" height="47.076" viewBox="0 0 32.953 47.076"><g id="Icons" transform="translate(-11 -5)"><path id="Path_8895" data-name="Path 8895" d="M27.477,52.076A16.477,16.477,0,0,0,43.953,35.6V21.477a16.477,16.477,0,1,0-32.953,0V35.6A16.477,16.477,0,0,0,27.477,52.076Zm-14.123-30.6a14.123,14.123,0,0,1,28.246,0V35.6a14.123,14.123,0,0,1-28.246,0Z" transform="translate(0 0)" fill="#061b5c"/><path id="Path_8896" data-name="Path 8896" d="M25.01,26.888h.106l.235.247a1.177,1.177,0,0,0,1.671,0l.235-.247h.106v-.106l6.72-6.708L32.413,18.4l-5.049,5.061V11H25.01V23.463L19.961,18.4,18.29,20.074l6.72,6.708Z" transform="translate(1.29 1.061)" fill="#061b5c"/></g></svg>