<svg id="Component_3_1" data-name="Component 3 – 1" xmlns="http://www.w3.org/2000/svg" width="109.199" height="109.199" viewBox="0 0 109.199 109.199"><path id="Path_8914" data-name="Path 8914" d="M9,53.592H59.055a1.462,1.462,0,0,0,1.181-2.31L35.194,11.015a1.447,1.447,0,0,0-2.389,0L7.789,51.282A1.472,1.472,0,0,0,9,53.592Z" transform="translate(7.961 15.786)" fill="#061b5c"/><path id="Path_8915" data-name="Path 8915" d="M21.755,25.722l9.187,14.621a1.422,1.422,0,0,0,1.181.63H46.088a1.462,1.462,0,0,0,1.181-2.31L31.1,15.642a1.447,1.447,0,0,0-2.389,0l-6.982,8.426A1.513,1.513,0,0,0,21.755,25.722Z" transform="translate(46.153 28.432)" fill="#061b5c"/><path id="Path_8916" data-name="Path 8916" d="M30.613,22.539a7.349,7.349,0,1,0-8.059-8.059A7.376,7.376,0,0,0,30.613,22.539Z" transform="translate(48.95 8.935)" fill="#061b5c"/><path id="Path_8917" data-name="Path 8917" d="M104.174,3.375h-92.4a8.391,8.391,0,0,0-8.4,8.4v92.4a8.391,8.391,0,0,0,8.4,8.4h92.4a8.391,8.391,0,0,0,8.4-8.4v-92.4A8.391,8.391,0,0,0,104.174,3.375Zm-.709,73.5a2.106,2.106,0,0,1-2.1,2.1H14.584a2.106,2.106,0,0,1-2.1-2.1V14.584a2.106,2.106,0,0,1,2.1-2.1h86.808a2.106,2.106,0,0,1,2.1,2.1V76.874Z" transform="translate(-3.375 -3.375)" fill="#061b5c"/></svg>