<svg xmlns="http://www.w3.org/2000/svg" width="96.492" height="96.492" viewBox="0 0 96.492 96.492"><g id="Group_20068" data-name="Group 20068" transform="translate(-1051.845 -341.805)"><g id="Group_20067" data-name="Group 20067"><g id="Group_20066" data-name="Group 20066"><path id="Path_6857" data-name="Path 6857" d="M621.718,251.635a48.246,48.246,0,1,1-48.246-48.246,48.246,48.246,0,0,1,48.246,48.246" transform="translate(526.619 138.416)" fill="#7cc9c1"/><path id="Path_6858" data-name="Path 6858" d="M616.135,249.728a44.569,44.569,0,1,1-44.569-44.569,44.57,44.57,0,0,1,44.569,44.569" transform="translate(528.526 140.322)" fill="#112041"/></g><path id="Path_6859" data-name="Path 6859" d="M583.839,238.7a23.3,23.3,0,1,1-23.3-23.3,23.3,23.3,0,0,1,23.3,23.3" transform="translate(539.556 151.352)" fill="#7cc9c1"/><path id="Path_6860" data-name="Path 6860" d="M595.933,237.626a20.321,20.321,0,0,0-10.25-2.723,20.392,20.392,0,0,0-4.03-25.456,15.7,15.7,0,1,1-27.294,0,20.4,20.4,0,0,0-4.028,25.456A20.4,20.4,0,0,0,530.3,251.12a15.705,15.705,0,1,1,13.648,23.638,20.394,20.394,0,0,0,24.06-9.24,20.394,20.394,0,0,0,24.06,9.24,15.705,15.705,0,1,1,13.646-23.638,20.388,20.388,0,0,0-9.78-13.494" transform="translate(532.085 144.942)" fill="#1e243b"/></g><path id="Path_6861" data-name="Path 6861" d="M557.462,229.691a5.933,5.933,0,1,1-5.933-5.933,5.934,5.934,0,0,1,5.933,5.933" transform="translate(548.564 160.359)" fill="#f1ebe5"/></g></svg>