<?xml version="1.0" encoding="UTF-8" standalone="no"?><svg id="Group_17019" data-name="Group 17019" width="1560.1674" height="140.74243" viewBox="0 0 1560.1674 140.74243" version="1.1" sodipodi:docname="image.svg" inkscape:version="1.1.2 (b8e25be833, 2022-02-05)" xmlns:inkscape="http://www.inkscape.org/namespaces/inkscape" xmlns:sodipodi="http://sodipodi.sourceforge.net/DTD/sodipodi-0.dtd" xmlns="http://www.w3.org/2000/svg" xmlns:svg="http://www.w3.org/2000/svg"><sodipodi:namedview id="namedview9" pagecolor="#ffffff" bordercolor="#999999" borderopacity="1" inkscape:pageshadow="0" inkscape:pageopacity="0" inkscape:pagecheckerboard="0" showgrid="false" inkscape:zoom="0.69223342" inkscape:cx="684.01783" inkscape:cy="254.2495" inkscape:window-width="1920" inkscape:window-height="1017" inkscape:window-x="-8" inkscape:window-y="-8" inkscape:window-maximized="1" inkscape:current-layer="Group_17019"/><defs id="defs4"><clipPath id="clip-path"><rect id="Rectangle_6248" data-name="Rectangle 6248" width="1558" height="1038.667" fill="none" x="0" y="0"/></clipPath></defs><g id="Group_17018" data-name="Group 17018" clip-path="url(#clip-path)" transform="translate(2.1733584,-292.082)" style="fill:#ffffff"><path id="Path_6843" data-name="Path 6843" d="m 0,141.567 c 38.944,0 38.944,31.16 77.888,31.16 38.944,0 38.946,-31.16 77.89,-31.16 38.944,0 38.946,31.16 77.89,31.16 38.944,0 38.948,-31.16 77.894,-31.16 38.946,0 38.952,31.16 77.9,31.16 38.948,0 38.948,-31.16 77.894,-31.16 38.946,0 38.95,31.16 77.9,31.16 38.95,0 38.948,-31.16 77.9,-31.16 38.952,0 38.948,31.16 77.9,31.16 38.952,0 38.95,-31.16 77.9,-31.16 38.95,0 38.95,31.16 77.9,31.16 38.95,0 38.952,-31.16 77.9,-31.16 38.948,0 38.952,31.16 77.9,31.16 38.948,0 38.946,-31.16 77.894,-31.16 38.948,0 38.952,31.16 77.9,31.16 38.948,0 38.952,-31.16 77.9,-31.16 38.948,0 38.954,31.16 77.906,31.16 38.952,0 38.954,-31.16 77.906,-31.16 38.952,0 38.958,31.16 77.915,31.16 38.957,0 38.958,-31.16 77.917,-31.16 V 886.152 H 0 Z" transform="translate(0,152.515)" fill="#caf8f3" style="fill:#ffffff"/></g><rect style="opacity:0.4;fill:none;fill-rule:evenodd" id="rect33" width="1560.1674" height="140.74243" x="0" y="0"/></svg>