<svg id="stress_1_" data-name="stress (1)" xmlns="http://www.w3.org/2000/svg" width="90.44" height="90.402" viewBox="0 0 90.44 90.402"><path id="Path_6954" data-name="Path 6954" d="M50.38,53.911V64.728a3.211,3.211,0,0,1-3.211,3.211h-.016a3.273,3.273,0,0,1-2.416-1.091L35.729,56.529a3.144,3.144,0,0,0-2.354-1.06h-.14A6.235,6.235,0,0,1,27,49.235V46.117L31.676,43Z" transform="translate(13.526 22.464)" fill="#7cc9c1"/><path id="Path_6955" data-name="Path 6955" d="M65.477,42.58V42.6a10.755,10.755,0,0,1,1,4.536c0,7.31-7.326,13.249-16.366,13.249a18.775,18.775,0,0,1-3.9-.39A15.375,15.375,0,0,1,34.46,51L54.006,37Z" transform="translate(17.694 19.112)" fill="#7cc9c1"/><path id="Path_6956" data-name="Path 6956" d="M86.446,37.716a11.111,11.111,0,0,0-2.961-1.356,16.664,16.664,0,0,0,.125-1.979A17.111,17.111,0,0,0,72.216,18.248H72.2a17.167,17.167,0,0,0-4.847-.966,17.067,17.067,0,0,0-18.034-3.538,11.875,11.875,0,0,0-3.289-1.886h-.016A11.983,11.983,0,0,0,41.526,11a12.279,12.279,0,0,0-5.549,1.309A12.524,12.524,0,0,0,33.218,14.2a10.842,10.842,0,0,0-13.669,1.824,10.264,10.264,0,0,0-1.917,2.821c-.343-.031-.686-.047-1.044-.047A10.884,10.884,0,0,0,5.676,29.7c0,.125.016.265.016.39a10.872,10.872,0,0,0-3.1,14.6c-.016.2-.031.39-.031.592A13.828,13.828,0,0,0,3.4,50.06a14,14,0,0,0,11.908,9.2,11.508,11.508,0,0,0,1.278.062,15.13,15.13,0,0,0,1.886-.14,13.992,13.992,0,0,0,24.035,6.468,13.51,13.51,0,0,0,1.855-2.525,20.228,20.228,0,0,0,26.279-6.328A19.13,19.13,0,0,0,72.262,54,10.911,10.911,0,1,0,86.446,37.715Z" transform="translate(-0.999 4.587)" fill="#7cc9c1"/><path id="Path_6957" data-name="Path 6957" d="M33.258,1a4.953,4.953,0,0,0-4.6,3.13L17.768,31.642a2.662,2.662,0,0,0,2.494,3.649H29.7A1.158,1.158,0,0,1,30.778,36.9l-8.372,19.99a1.28,1.28,0,0,0,2.117,1.356L52.01,29.072a1.855,1.855,0,0,0-1.364-3.133H40.755a1.236,1.236,0,0,1-1.054-1.9L49.778,8.717A4.988,4.988,0,0,0,45.579,1Z" transform="translate(8.263 -1)" fill="#112041"/><g id="Group_17024" data-name="Group 17024" transform="translate(1.56 20.606)"><path id="Path_6958" data-name="Path 6958" d="M13.44,43.8a15.13,15.13,0,0,1-1.886.14,11.508,11.508,0,0,1-1.278-.062,15.4,15.4,0,0,1-.234-3.881,1.562,1.562,0,0,1,3.117.2,12.692,12.692,0,0,0,.281,3.6Z" transform="translate(2.474 -0.637)" fill="#7cc9c1"/><path id="Path_6959" data-name="Path 6959" d="M30.694,45.2a13.51,13.51,0,0,1-1.855,2.525,20.6,20.6,0,0,1-2.681-1.792,1.559,1.559,0,1,1,1.917-2.447A19.4,19.4,0,0,0,30.694,45.2Z" transform="translate(11.11 1.902)" fill="#7cc9c1"/><path id="Path_6960" data-name="Path 6960" d="M48.682,40.426a19.129,19.129,0,0,1-1.621,2.79,13.381,13.381,0,0,1-3.788-5.907,1.561,1.561,0,0,1,2.993-.888,9.46,9.46,0,0,0,2.416,4.006Z" transform="translate(21.022 -2.442)" fill="#7cc9c1"/><path id="Path_6961" data-name="Path 6961" d="M49.072,20.594a1.651,1.651,0,0,1-.655.14,1.548,1.548,0,0,1-1.418-.9,15.389,15.389,0,0,0-3.429-4.8A17.167,17.167,0,0,1,48.417,16h.016a18.039,18.039,0,0,1,1.4,2.525,1.559,1.559,0,0,1-.764,2.073Z" transform="translate(21.224 -13.767)" fill="#7cc9c1"/><path id="Path_6962" data-name="Path 6962" d="M57.262,28.626a19.788,19.788,0,0,1-1.013,3.647,1.559,1.559,0,0,1-1.45.982,1.514,1.514,0,0,1-.577-.109,1.54,1.54,0,0,1-.873-2.011A15.761,15.761,0,0,0,54.3,27.27a11.111,11.111,0,0,1,2.961,1.356Z" transform="translate(26.625 -6.929)" fill="#7cc9c1"/><path id="Path_6963" data-name="Path 6963" d="M6.785,38.34a1.559,1.559,0,0,1-1.418.888,1.5,1.5,0,0,1-.67-.156,12.872,12.872,0,0,1-1.855-1.091A13.828,13.828,0,0,1,2,33.212c0-.2.016-.39.031-.592a9.209,9.209,0,0,0,4.006,3.632,1.585,1.585,0,0,1,.748,2.089Z" transform="translate(-2 -3.941)" fill="#7cc9c1"/><path id="Path_6964" data-name="Path 6964" d="M9.346,21.59a1.559,1.559,0,0,1-1.325,1.761,9.4,9.4,0,0,0-4.006,1.574c0-.125-.016-.265-.016-.39a10.823,10.823,0,0,1,.546-3.429,12.058,12.058,0,0,1,3.039-.842A1.559,1.559,0,0,1,9.346,21.59Z" transform="translate(-0.883 -10.851)" fill="#7cc9c1"/><path id="Path_6965" data-name="Path 6965" d="M16.86,17.166a1.576,1.576,0,0,1-1.418.888,1.5,1.5,0,0,1-.67-.156,9.388,9.388,0,0,0-3.1-.857,10.264,10.264,0,0,1,1.917-2.821,11.269,11.269,0,0,1,2.525.873,1.559,1.559,0,0,1,.748,2.073Z" transform="translate(3.402 -14.22)" fill="#7cc9c1"/></g></svg>